<svg width="782" height="573" viewBox="0 0 782 573" fill="none" xmlns="http://www.w3.org/2000/svg">
<path d="M59 0L47.453 20H70.547L59 0ZM59 527H61L61 18H59H57L57 527H59Z" fill="black"/>
<path d="M782 527L762 515.453V538.547L782 527ZM59 527V529H764V527V525H59V527Z" fill="black"/>
<path d="M22 368.047H5.32422L5.32422 362.164C5.32422 360.375 5.67578 358.879 6.37891 357.676C6.80859 356.957 7.33984 356.387 7.97266 355.965C8.60547 355.543 9.27344 355.332 9.97656 355.332C10.9688 355.332 11.8594 355.727 12.6484 356.516C13.4297 357.305 13.9727 358.293 14.2773 359.48L22 354.605V357.125L14.5586 361.707V365.598H22V368.047ZM12.7656 365.598V362.293C12.7656 361.238 12.668 360.359 12.4727 359.656C12.2773 358.945 11.9023 358.414 11.3477 358.062C10.9492 357.805 10.5 357.676 10 357.676C9.10156 357.676 8.41406 358.039 7.9375 358.766C7.47656 359.469 7.24219 360.602 7.23438 362.164L7.23438 365.574L8.03125 365.598H12.7656ZM16.2695 353.199C14.6211 353.199 13.2266 352.676 12.0859 351.629C10.9375 350.574 10.3633 349.32 10.3633 347.867C10.3633 347.469 10.4063 347.078 10.4922 346.695C10.5781 346.305 10.75 345.898 11.0078 345.477C11.2656 345.055 11.5938 344.691 11.9922 344.387C12.3906 344.082 12.9336 343.828 13.6211 343.625C14.3086 343.414 15.1016 343.309 16 343.309V351.031H16.2344C17.4219 351.031 18.4141 350.684 19.2109 349.988C20 349.293 20.3945 348.457 20.3945 347.48C20.3945 346.152 19.9375 344.863 19.0234 343.613L20.9688 343.449C21.7812 344.715 22.1875 346.059 22.1875 347.48C22.1875 349.145 21.6016 350.516 20.4297 351.594C19.2578 352.664 17.8711 353.199 16.2695 353.199ZM14.582 350.75V345.277C12.9805 345.66 12.1797 346.531 12.1797 347.891C12.1797 348.484 12.3945 349.051 12.8242 349.59C13.2461 350.121 13.832 350.508 14.582 350.75ZM22 341.035H5.32422V338.773H22L22 341.035ZM22 335.645H10.668V333.383H22V335.645ZM7.59766 335.645H5.34766L5.34766 333.395H7.59766L7.59766 335.645ZM18.8125 330.875C17.7578 330.875 16.9492 330.223 16.3867 328.918C15.8242 327.613 15.5117 325.938 15.4492 323.891H14.6055C13.9492 323.891 13.4688 323.973 13.1641 324.137C12.4297 324.52 12.0625 325.117 12.0625 325.93C12.0781 326.742 12.1836 327.406 12.3789 327.922C12.5664 328.438 12.9102 329.039 13.4102 329.727L11.3945 329.891C10.707 328.562 10.3633 327.227 10.3633 325.883C10.3633 324.68 10.7148 323.684 11.418 322.895C12.1211 322.105 12.9688 321.672 13.9609 321.594L14.7578 321.57H22V323.82H21.1328L20.4648 323.844C21.0273 324.289 21.457 324.887 21.7539 325.637C22.043 326.379 22.1875 327.133 22.1875 327.898C22.1875 328.844 21.832 329.578 21.1211 330.102C20.4102 330.617 19.6406 330.875 18.8125 330.875ZM18.7656 328.648C19.2422 328.648 19.6328 328.445 19.9375 328.039C20.2422 327.625 20.3945 327.121 20.3945 326.527C20.3945 325.98 20.2734 325.477 20.0313 325.016C19.7891 324.555 19.4688 324.227 19.0703 324.031C18.8594 323.938 18.5313 323.891 18.0859 323.891H16.5742C16.6367 325.359 16.8594 326.52 17.2422 327.371C17.6172 328.223 18.125 328.648 18.7656 328.648ZM22 318.441H5.32422V316.18H11.9688C10.9766 315.062 10.4805 313.742 10.4805 312.219C10.4805 311.133 11.0586 310.234 12.2148 309.523C13.3633 308.812 14.7148 308.457 16.2695 308.457C17.9648 308.457 19.375 308.906 20.5 309.805C21.625 310.695 22.1875 311.773 22.1875 313.039C22.1875 314.141 21.7109 315.172 20.7578 316.133H22V318.441ZM18.8828 316.133C19.3125 316.133 19.6719 315.93 19.9609 315.523C20.25 315.117 20.3945 314.656 20.3945 314.141C20.3945 313.82 20.3594 313.496 20.2891 313.168C20.2109 312.84 20.0313 312.469 19.75 312.055C19.4609 311.641 19.0742 311.328 18.5898 311.117C18.043 310.883 17.3008 310.766 16.3633 310.766C16.332 310.766 16.3008 310.766 16.2695 310.766C14.8008 310.766 13.7578 311.059 13.1406 311.645C12.5703 312.199 12.2852 312.934 12.2852 313.848C12.2852 313.863 12.2852 313.875 12.2852 313.883C12.2852 314.078 12.2969 314.258 12.3203 314.422C12.3438 314.586 12.3828 314.738 12.4375 314.879C12.4922 315.012 12.543 315.133 12.5898 315.242C12.6367 315.344 12.707 315.449 12.8008 315.559C12.8867 315.668 12.9492 315.75 12.9883 315.805C13.0273 315.852 13.0859 315.922 13.1641 316.016L13.293 316.133H18.8828ZM22 306.043H10.668V303.781H22V306.043ZM7.59766 306.043H5.34766L5.34766 303.793H7.59766L7.59766 306.043ZM22 300.652H5.32422V298.391H22V300.652ZM22 295.262H10.668V293H22V295.262ZM7.59766 295.262H5.34766V293.012H7.59766V295.262ZM12.4727 290.973H10.668V289.004H7.43359V286.848H10.668V283.484H12.4727V286.848H17.9688C19.5391 286.848 20.3242 286.43 20.3242 285.594C20.3242 284.969 20.043 284.281 19.4805 283.531L21.2031 283.051C21.8594 284.254 22.1875 285.551 22.1875 286.941C22.1875 288.348 20.8672 289.051 18.2266 289.051H12.4727V290.973ZM10.668 282.699V280.402C14.8633 278.801 17.418 277.879 18.332 277.637C18.8086 277.527 19.2617 277.441 19.6914 277.379C18.7773 277.316 16.1328 276.531 11.7578 275.023C11.2813 274.844 10.918 274.715 10.668 274.637V272.41L22.4805 276.582C23.5977 276.98 24.4961 277.469 25.1758 278.047C25.8555 278.625 26.1953 279.434 26.1953 280.473C26.1953 280.84 26.1406 281.438 26.0313 282.266L24.0391 282.465C24.2813 281.652 24.4023 280.98 24.4023 280.449C24.4023 280.309 24.3906 280.18 24.3672 280.062C24.3438 279.938 24.3125 279.828 24.2734 279.734C24.2422 279.633 24.1875 279.535 24.1094 279.441C24.0313 279.348 23.9688 279.273 23.9219 279.219C23.875 279.156 23.7852 279.086 23.6523 279.008C23.5273 278.93 23.4375 278.875 23.3828 278.844C23.3281 278.812 23.2188 278.766 23.0547 278.703C22.8984 278.633 22.7891 278.586 22.7266 278.562C22.6719 278.539 22.5469 278.496 22.3516 278.434C22.1641 278.371 22.0469 278.332 22 278.316L10.668 282.699ZM27.332 257.504C24.6758 260.621 20.7891 262.18 15.6719 262.18C10.5469 262.18 6.65625 260.621 4 257.504V255.676C4.36719 256.043 4.6875 256.348 4.96094 256.59C5.23438 256.832 5.73047 257.188 6.44922 257.656C7.16797 258.117 7.91406 258.488 8.6875 258.77C9.45313 259.043 10.4531 259.297 11.6875 259.531C12.9141 259.766 14.2422 259.883 15.6719 259.883C17.0938 259.883 18.4219 259.766 19.6563 259.531C20.8828 259.297 21.8789 259.043 22.6445 258.77C23.418 258.488 24.1641 258.117 24.8828 257.656C25.6016 257.188 26.0977 256.832 26.3711 256.59C26.6445 256.348 26.9648 256.043 27.332 255.676V257.504ZM22 252.195H5.32422V248.879C14.0117 245.52 18.668 243.785 19.293 243.676C18.668 243.566 14.0117 241.828 5.32422 238.461V235.156H22V237.406H7.64453C8.76172 237.742 10.3164 238.297 12.3086 239.07L21.5898 242.621V244.777L12.4727 248.258C9.81641 249.25 8.20703 249.809 7.64453 249.934H22V252.195ZM7.33984 232.18H5.44141L5.44141 216.605H7.33984L7.33984 223.133H22L22 225.652H7.33984V232.18ZM22 213.711H5.32422V207.957C5.32422 206.277 5.61719 204.883 6.20313 203.773C6.60156 203.008 7.10547 202.406 7.71484 201.969C8.32422 201.523 8.94922 201.301 9.58984 201.301C10.7773 201.301 11.7539 201.988 12.5195 203.363C12.7461 203.777 12.9961 204.434 13.2695 205.332C13.5273 203.91 14.0391 202.77 14.8047 201.91C15.5703 201.043 16.4336 200.609 17.3945 200.609C18.543 200.609 19.5508 201.133 20.418 202.18C21.2773 203.227 21.7891 204.512 21.9531 206.035C21.9844 206.309 22 206.73 22 207.301V213.711ZM20.0781 211.309V208.402C20.0781 208.34 20.082 208.25 20.0898 208.133C20.0977 208.016 20.1016 207.922 20.1016 207.852C20.1016 206.188 19.8125 204.961 19.2344 204.172C18.6484 203.383 18.0273 202.988 17.3711 202.988C16.6523 202.988 15.9883 203.363 15.3789 204.113C14.7695 204.863 14.4023 205.879 14.2773 207.16C14.2461 207.434 14.2266 207.832 14.2188 208.355L14.2188 211.285L15.0625 211.309H20.0781ZM12.4258 211.309L12.4258 208.402C12.4258 206.965 12.1445 205.812 11.582 204.945C11.0195 204.07 10.3711 203.633 9.63672 203.633C8.93359 203.633 8.35938 204.098 7.91406 205.027C7.46094 205.949 7.23438 207.117 7.23438 208.531V211.285L8.00781 211.309H12.4258ZM22 197.281H5.32422V194.762H22V197.281ZM27.332 191.41C26.9492 191.027 26.6289 190.727 26.3711 190.508C26.1133 190.281 25.6172 189.934 24.8828 189.465C24.1484 188.988 23.4023 188.609 22.6445 188.328C21.8945 188.047 20.9023 187.793 19.668 187.566C18.4258 187.332 17.0898 187.215 15.6602 187.215C14.2695 187.215 12.9688 187.324 11.7578 187.543C10.5391 187.754 9.55078 188 8.79297 188.281C8.02734 188.562 7.29688 188.918 6.60156 189.348C5.90625 189.777 5.41016 190.121 5.11328 190.379C4.81641 190.637 4.5 190.926 4.16406 191.246C4.08594 191.324 4.03125 191.379 4 191.41V189.617C6.67188 186.484 10.5625 184.918 15.6719 184.918C20.7734 184.91 24.6602 186.477 27.332 189.617V191.41Z" fill="black"/>
<path d="M322.086 565V548.324H328.156C329.727 548.324 331.031 548.652 332.07 549.309C332.82 549.785 333.414 550.387 333.852 551.113C334.297 551.84 334.52 552.613 334.52 553.434C334.52 554.746 333.969 555.922 332.867 556.961C331.773 558 330.285 558.52 328.402 558.52H324.605V565H322.086ZM324.535 556.668H327.652C328.051 556.668 328.395 556.66 328.684 556.645C328.973 556.629 329.355 556.562 329.832 556.445C330.316 556.328 330.711 556.164 331.016 555.953C331.32 555.742 331.586 555.426 331.812 555.004C332.047 554.582 332.164 554.066 332.164 553.457C332.164 552.848 332.047 552.332 331.812 551.91C331.586 551.488 331.32 551.172 331.016 550.961C330.711 550.75 330.32 550.586 329.844 550.469C329.375 550.352 329 550.285 328.719 550.27C328.438 550.246 328.098 550.234 327.699 550.234H324.559L324.535 551.125V556.668ZM337.496 565V553.668H339.652V556.117C340.598 554.391 342 553.512 343.859 553.48V555.52C343.43 555.52 343 555.582 342.57 555.707C342.148 555.824 341.711 556.016 341.258 556.281C340.812 556.539 340.449 556.93 340.168 557.453C339.895 557.969 339.758 558.59 339.758 559.316V565H337.496ZM346.59 563.535C345.48 562.434 344.926 561.043 344.926 559.363C344.926 557.684 345.477 556.27 346.578 555.121C347.688 553.965 349.004 553.387 350.527 553.387C352.113 553.387 353.441 553.988 354.512 555.191C355.582 556.387 356.117 557.785 356.117 559.387C356.117 561.035 355.562 562.414 354.453 563.523C353.352 564.633 352.043 565.188 350.527 565.188C349.02 565.188 347.707 564.637 346.59 563.535ZM347.234 559.023C347.234 560.508 347.531 561.605 348.125 562.316C348.703 562.988 349.504 563.324 350.527 563.324C351.488 563.324 352.254 563.027 352.824 562.434C353.48 561.762 353.809 560.609 353.809 558.977C353.809 557.617 353.5 556.645 352.883 556.059C352.266 555.473 351.48 555.18 350.527 555.18C348.332 555.18 347.234 556.461 347.234 559.023ZM357.688 559.316C357.688 557.73 358.086 556.363 358.883 555.215C359.68 554.059 360.688 553.48 361.906 553.48C363.172 553.48 364.34 553.945 365.41 554.875V548.324H367.672V565H365.363V563.582C364.324 564.652 363.164 565.188 361.883 565.188C360.68 565.188 359.68 564.613 358.883 563.465C358.086 562.316 357.688 560.934 357.688 559.316ZM359.984 559.645C360.016 560.793 360.25 561.668 360.688 562.27C361.25 563.02 362.059 563.395 363.113 563.395C363.512 563.395 363.887 563.301 364.238 563.113C364.59 562.918 364.82 562.758 364.93 562.633C365.047 562.5 365.191 562.32 365.363 562.094V556.188C364.793 555.586 364.137 555.285 363.395 555.285C363.387 555.285 363.379 555.285 363.371 555.285C362.348 555.285 361.523 555.602 360.898 556.234C360.289 556.859 359.984 557.828 359.984 559.141V559.645ZM370.777 561.859V553.668H373.086V561.684C373.102 562.465 373.156 562.938 373.25 563.102C373.43 563.359 373.98 563.488 374.902 563.488C375.848 563.488 376.539 563.242 376.977 562.75C377.422 562.25 377.676 561.754 377.738 561.262C377.754 561.105 377.762 560.855 377.762 560.512V553.668H380.07V565H377.809V563.195C376.676 564.523 375.18 565.188 373.32 565.188C372.742 565.188 372.27 565.09 371.902 564.895C371.535 564.691 371.273 564.398 371.117 564.016C370.969 563.633 370.875 563.289 370.836 562.984C370.797 562.68 370.777 562.305 370.777 561.859ZM382.484 559.316C382.484 557.699 383.008 556.305 384.055 555.133C385.102 553.953 386.441 553.363 388.074 553.363C388.902 553.363 389.566 553.438 390.066 553.586C390.574 553.727 391.215 553.996 391.988 554.395L391.648 556.363C390.977 555.934 390.41 555.637 389.949 555.473C389.496 555.309 388.871 555.227 388.074 555.227C387.691 555.227 387.332 555.285 386.996 555.402C386.66 555.512 386.312 555.703 385.953 555.977C385.594 556.25 385.309 556.676 385.098 557.254C384.887 557.824 384.781 558.52 384.781 559.34C384.781 560.762 385.109 561.781 385.766 562.398C386.422 563.016 387.168 563.324 388.004 563.324C389.348 563.324 390.668 562.883 391.965 562L392.129 563.992C390.801 564.789 389.434 565.188 388.027 565.188C386.426 565.188 385.102 564.605 384.055 563.441C383.008 562.277 382.484 560.902 382.484 559.316ZM393.301 555.473V553.668H395.27V550.434H397.426V553.668H400.789V555.473H397.426V560.969C397.426 562.539 397.844 563.324 398.68 563.324C399.305 563.324 399.992 563.043 400.742 562.48L401.223 564.203C400.02 564.859 398.723 565.188 397.332 565.188C395.926 565.188 395.223 563.867 395.223 561.227V555.473H393.301ZM403.496 565V553.668H405.758V565H403.496ZM403.496 550.598V548.348H405.746V550.598H403.496ZM407.668 553.668H409.918C411.66 558.887 412.629 561.895 412.824 562.691L413.188 561.402L415.73 553.668H417.957L414.125 565.07H411.5L407.668 553.668ZM419.879 565V553.668H422.141V565H419.879ZM419.879 550.598V548.348H422.129V550.598H419.879ZM424.168 555.473V553.668H426.137V550.434H428.293V553.668H431.656V555.473H428.293V560.969C428.293 562.539 428.711 563.324 429.547 563.324C430.172 563.324 430.859 563.043 431.609 562.48L432.09 564.203C430.887 564.859 429.59 565.188 428.199 565.188C426.793 565.188 426.09 563.867 426.09 561.227V555.473H424.168ZM432.441 553.668H434.738C436.34 557.863 437.262 560.418 437.504 561.332C437.613 561.809 437.699 562.262 437.762 562.691C437.824 561.777 438.609 559.133 440.117 554.758C440.297 554.281 440.426 553.918 440.504 553.668H442.73L438.559 565.48C438.16 566.598 437.672 567.496 437.094 568.176C436.516 568.855 435.707 569.195 434.668 569.195C434.301 569.195 433.703 569.141 432.875 569.031L432.676 567.039C433.488 567.281 434.16 567.402 434.691 567.402C434.832 567.402 434.961 567.391 435.078 567.367C435.203 567.344 435.312 567.312 435.406 567.273C435.508 567.242 435.605 567.188 435.699 567.109C435.793 567.031 435.867 566.969 435.922 566.922C435.984 566.875 436.055 566.785 436.133 566.652C436.211 566.527 436.266 566.438 436.297 566.383C436.328 566.328 436.375 566.219 436.438 566.055C436.508 565.898 436.555 565.789 436.578 565.727C436.602 565.672 436.645 565.547 436.707 565.352C436.77 565.164 436.809 565.047 436.824 565L432.441 553.668ZM457.637 570.332C454.52 567.676 452.961 563.789 452.961 558.672C452.961 553.547 454.52 549.656 457.637 547H459.465C459.098 547.367 458.793 547.688 458.551 547.961C458.309 548.234 457.953 548.73 457.484 549.449C457.023 550.168 456.652 550.914 456.371 551.688C456.098 552.453 455.844 553.453 455.609 554.688C455.375 555.914 455.258 557.242 455.258 558.672C455.258 560.094 455.375 561.422 455.609 562.656C455.844 563.883 456.098 564.879 456.371 565.645C456.652 566.418 457.023 567.164 457.484 567.883C457.953 568.602 458.309 569.098 458.551 569.371C458.793 569.645 459.098 569.965 459.465 570.332H457.637ZM461.773 550.34V548.441H477.348V550.34H470.82V565H468.301V550.34H461.773ZM480.219 565V548.324H486.289C487.859 548.324 489.164 548.652 490.203 549.309C490.953 549.785 491.547 550.387 491.984 551.113C492.43 551.84 492.652 552.613 492.652 553.434C492.652 554.746 492.102 555.922 491 556.961C489.906 558 488.418 558.52 486.535 558.52H482.738V565H480.219ZM482.668 556.668H485.785C486.184 556.668 486.527 556.66 486.816 556.645C487.105 556.629 487.488 556.562 487.965 556.445C488.449 556.328 488.844 556.164 489.148 555.953C489.453 555.742 489.719 555.426 489.945 555.004C490.18 554.582 490.297 554.066 490.297 553.457C490.297 552.848 490.18 552.332 489.945 551.91C489.719 551.488 489.453 551.172 489.148 550.961C488.844 550.75 488.453 550.586 487.977 550.469C487.508 550.352 487.133 550.285 486.852 550.27C486.57 550.246 486.23 550.234 485.832 550.234H482.691L482.668 551.125V556.668ZM495.992 565V548.324H498.512V555.379H506.574V548.324H509.094V565H506.574V557.301H498.512V565H495.992ZM512.457 570.332C512.84 569.949 513.141 569.629 513.359 569.371C513.586 569.113 513.934 568.617 514.402 567.883C514.879 567.148 515.258 566.402 515.539 565.645C515.82 564.895 516.074 563.902 516.301 562.668C516.535 561.426 516.652 560.09 516.652 558.66C516.652 557.27 516.543 555.969 516.324 554.758C516.113 553.539 515.867 552.551 515.586 551.793C515.305 551.027 514.949 550.297 514.52 549.602C514.09 548.906 513.746 548.41 513.488 548.113C513.23 547.816 512.941 547.5 512.621 547.164C512.543 547.086 512.488 547.031 512.457 547H514.25C517.383 549.672 518.949 553.562 518.949 558.672C518.957 563.773 517.391 567.66 514.25 570.332H512.457Z" fill="black"/>
<circle cx="176" cy="83" r="14.5" fill="#D06049" stroke="black"/>
<circle cx="176" cy="424" r="14.5" fill="#FFD23C" stroke="black"/>
<circle cx="666" cy="424" r="14.5" fill="#34A872" stroke="black"/>
<circle cx="666" cy="83" r="14.5" fill="#007295" stroke="black"/>
<path d="M146.23 458.891C147.332 459.125 148.156 459.5 148.703 460.016C149.461 460.734 149.84 461.613 149.84 462.652C149.84 463.441 149.59 464.199 149.09 464.926C148.59 465.645 147.902 466.172 147.027 466.508C146.16 466.836 144.832 467 143.043 467H135.543V466.566H136.141C136.805 466.566 137.281 466.355 137.57 465.934C137.75 465.66 137.84 465.078 137.84 464.188V453.922C137.84 452.938 137.727 452.316 137.5 452.059C137.195 451.715 136.742 451.543 136.141 451.543H135.543V451.109H142.41C143.691 451.109 144.719 451.203 145.492 451.391C146.664 451.672 147.559 452.172 148.176 452.891C148.793 453.602 149.102 454.422 149.102 455.352C149.102 456.148 148.859 456.863 148.375 457.496C147.891 458.121 147.176 458.586 146.23 458.891ZM140.09 458.258C140.379 458.312 140.707 458.355 141.074 458.387C141.449 458.41 141.859 458.422 142.305 458.422C143.445 458.422 144.301 458.301 144.871 458.059C145.449 457.809 145.891 457.43 146.195 456.922C146.5 456.414 146.652 455.859 146.652 455.258C146.652 454.328 146.273 453.535 145.516 452.879C144.758 452.223 143.652 451.895 142.199 451.895C141.418 451.895 140.715 451.98 140.09 452.152V458.258ZM140.09 465.852C140.996 466.062 141.891 466.168 142.773 466.168C144.188 466.168 145.266 465.852 146.008 465.219C146.75 464.578 147.121 463.789 147.121 462.852C147.121 462.234 146.953 461.641 146.617 461.07C146.281 460.5 145.734 460.051 144.977 459.723C144.219 459.395 143.281 459.23 142.164 459.23C141.68 459.23 141.266 459.238 140.922 459.254C140.578 459.27 140.301 459.297 140.09 459.336V465.852ZM157.984 465.453C156.883 466.305 156.191 466.797 155.91 466.93C155.488 467.125 155.039 467.223 154.562 467.223C153.82 467.223 153.207 466.969 152.723 466.461C152.246 465.953 152.008 465.285 152.008 464.457C152.008 463.934 152.125 463.48 152.359 463.098C152.68 462.566 153.234 462.066 154.023 461.598C154.82 461.129 156.141 460.559 157.984 459.887V459.465C157.984 458.395 157.812 457.66 157.469 457.262C157.133 456.863 156.641 456.664 155.992 456.664C155.5 456.664 155.109 456.797 154.82 457.062C154.523 457.328 154.375 457.633 154.375 457.977L154.398 458.656C154.398 459.016 154.305 459.293 154.117 459.488C153.938 459.684 153.699 459.781 153.402 459.781C153.113 459.781 152.875 459.68 152.688 459.477C152.508 459.273 152.418 458.996 152.418 458.645C152.418 457.973 152.762 457.355 153.449 456.793C154.137 456.23 155.102 455.949 156.344 455.949C157.297 455.949 158.078 456.109 158.688 456.43C159.148 456.672 159.488 457.051 159.707 457.566C159.848 457.902 159.918 458.59 159.918 459.629V463.273C159.918 464.297 159.938 464.926 159.977 465.16C160.016 465.387 160.078 465.539 160.164 465.617C160.258 465.695 160.363 465.734 160.48 465.734C160.605 465.734 160.715 465.707 160.809 465.652C160.973 465.551 161.289 465.266 161.758 464.797V465.453C160.883 466.625 160.047 467.211 159.25 467.211C158.867 467.211 158.562 467.078 158.336 466.812C158.109 466.547 157.992 466.094 157.984 465.453ZM157.984 464.691V460.602C156.805 461.07 156.043 461.402 155.699 461.598C155.082 461.941 154.641 462.301 154.375 462.676C154.109 463.051 153.977 463.461 153.977 463.906C153.977 464.469 154.145 464.938 154.48 465.312C154.816 465.68 155.203 465.863 155.641 465.863C156.234 465.863 157.016 465.473 157.984 464.691ZM169.504 455.949V459.605H169.117C168.82 458.457 168.438 457.676 167.969 457.262C167.508 456.848 166.918 456.641 166.199 456.641C165.652 456.641 165.211 456.785 164.875 457.074C164.539 457.363 164.371 457.684 164.371 458.035C164.371 458.473 164.496 458.848 164.746 459.16C164.988 459.48 165.48 459.82 166.223 460.18L167.934 461.012C169.52 461.785 170.312 462.805 170.312 464.07C170.312 465.047 169.941 465.836 169.199 466.438C168.465 467.031 167.641 467.328 166.727 467.328C166.07 467.328 165.32 467.211 164.477 466.977C164.219 466.898 164.008 466.859 163.844 466.859C163.664 466.859 163.523 466.961 163.422 467.164H163.035V463.332H163.422C163.641 464.426 164.059 465.25 164.676 465.805C165.293 466.359 165.984 466.637 166.75 466.637C167.289 466.637 167.727 466.48 168.062 466.168C168.406 465.848 168.578 465.465 168.578 465.02C168.578 464.48 168.387 464.027 168.004 463.66C167.629 463.293 166.875 462.828 165.742 462.266C164.609 461.703 163.867 461.195 163.516 460.742C163.164 460.297 162.988 459.734 162.988 459.055C162.988 458.172 163.289 457.434 163.891 456.84C164.5 456.246 165.285 455.949 166.246 455.949C166.668 455.949 167.18 456.039 167.781 456.219C168.18 456.336 168.445 456.395 168.578 456.395C168.703 456.395 168.801 456.367 168.871 456.312C168.941 456.258 169.023 456.137 169.117 455.949H169.504ZM173.723 460.309C173.715 461.902 174.102 463.152 174.883 464.059C175.664 464.965 176.582 465.418 177.637 465.418C178.34 465.418 178.949 465.227 179.465 464.844C179.988 464.453 180.426 463.789 180.777 462.852L181.141 463.086C180.977 464.156 180.5 465.133 179.711 466.016C178.922 466.891 177.934 467.328 176.746 467.328C175.457 467.328 174.352 466.828 173.43 465.828C172.516 464.82 172.059 463.469 172.059 461.773C172.059 459.938 172.527 458.508 173.465 457.484C174.41 456.453 175.594 455.938 177.016 455.938C178.219 455.938 179.207 456.336 179.98 457.133C180.754 457.922 181.141 458.98 181.141 460.309H173.723ZM173.723 459.629H178.691C178.652 458.941 178.57 458.457 178.445 458.176C178.25 457.738 177.957 457.395 177.566 457.145C177.184 456.895 176.781 456.77 176.359 456.77C175.711 456.77 175.129 457.023 174.613 457.531C174.105 458.031 173.809 458.73 173.723 459.629ZM186.273 450.336V464.574C186.273 465.246 186.32 465.691 186.414 465.91C186.516 466.129 186.668 466.297 186.871 466.414C187.074 466.523 187.453 466.578 188.008 466.578V467H182.746V466.578C183.238 466.578 183.574 466.527 183.754 466.426C183.934 466.324 184.074 466.156 184.176 465.922C184.277 465.688 184.328 465.238 184.328 464.574V454.824C184.328 453.613 184.301 452.871 184.246 452.598C184.191 452.316 184.102 452.125 183.977 452.023C183.859 451.922 183.707 451.871 183.52 451.871C183.316 451.871 183.059 451.934 182.746 452.059L182.547 451.648L185.746 450.336H186.273ZM191.992 450.336C192.32 450.336 192.598 450.453 192.824 450.688C193.059 450.914 193.176 451.191 193.176 451.52C193.176 451.848 193.059 452.129 192.824 452.363C192.598 452.598 192.32 452.715 191.992 452.715C191.664 452.715 191.383 452.598 191.148 452.363C190.914 452.129 190.797 451.848 190.797 451.52C190.797 451.191 190.91 450.914 191.137 450.688C191.371 450.453 191.656 450.336 191.992 450.336ZM192.965 455.949V464.574C192.965 465.246 193.012 465.695 193.105 465.922C193.207 466.141 193.352 466.305 193.539 466.414C193.734 466.523 194.086 466.578 194.594 466.578V467H189.379V466.578C189.902 466.578 190.254 466.527 190.434 466.426C190.613 466.324 190.754 466.156 190.855 465.922C190.965 465.688 191.02 465.238 191.02 464.574V460.438C191.02 459.273 190.984 458.52 190.914 458.176C190.859 457.926 190.773 457.754 190.656 457.66C190.539 457.559 190.379 457.508 190.176 457.508C189.957 457.508 189.691 457.566 189.379 457.684L189.215 457.262L192.449 455.949H192.965ZM199.07 458.223C200.328 456.707 201.527 455.949 202.668 455.949C203.254 455.949 203.758 456.098 204.18 456.395C204.602 456.684 204.938 457.164 205.188 457.836C205.359 458.305 205.445 459.023 205.445 459.992V464.574C205.445 465.254 205.5 465.715 205.609 465.957C205.695 466.152 205.832 466.305 206.02 466.414C206.215 466.523 206.57 466.578 207.086 466.578V467H201.777V466.578H202C202.5 466.578 202.848 466.504 203.043 466.355C203.246 466.199 203.387 465.973 203.465 465.676C203.496 465.559 203.512 465.191 203.512 464.574V460.18C203.512 459.203 203.383 458.496 203.125 458.059C202.875 457.613 202.449 457.391 201.848 457.391C200.918 457.391 199.992 457.898 199.07 458.914V464.574C199.07 465.301 199.113 465.75 199.199 465.922C199.309 466.148 199.457 466.316 199.645 466.426C199.84 466.527 200.23 466.578 200.816 466.578V467H195.508V466.578H195.742C196.289 466.578 196.656 466.441 196.844 466.168C197.039 465.887 197.137 465.355 197.137 464.574V460.59C197.137 459.301 197.105 458.516 197.043 458.234C196.988 457.953 196.898 457.762 196.773 457.66C196.656 457.559 196.496 457.508 196.293 457.508C196.074 457.508 195.812 457.566 195.508 457.684L195.332 457.262L198.566 455.949H199.07V458.223ZM209.746 460.309C209.738 461.902 210.125 463.152 210.906 464.059C211.688 464.965 212.605 465.418 213.66 465.418C214.363 465.418 214.973 465.227 215.488 464.844C216.012 464.453 216.449 463.789 216.801 462.852L217.164 463.086C217 464.156 216.523 465.133 215.734 466.016C214.945 466.891 213.957 467.328 212.77 467.328C211.48 467.328 210.375 466.828 209.453 465.828C208.539 464.82 208.082 463.469 208.082 461.773C208.082 459.938 208.551 458.508 209.488 457.484C210.434 456.453 211.617 455.938 213.039 455.938C214.242 455.938 215.23 456.336 216.004 457.133C216.777 457.922 217.164 458.98 217.164 460.309H209.746ZM209.746 459.629H214.715C214.676 458.941 214.594 458.457 214.469 458.176C214.273 457.738 213.98 457.395 213.59 457.145C213.207 456.895 212.805 456.77 212.383 456.77C211.734 456.77 211.152 457.023 210.637 457.531C210.129 458.031 209.832 458.73 209.746 459.629Z" fill="black"/>
<path d="M117.297 56L111.156 42.6289V53.2461C111.156 54.2227 111.262 54.832 111.473 55.0742C111.762 55.4023 112.219 55.5664 112.844 55.5664H113.406V56H107.875V55.5664H108.438C109.109 55.5664 109.586 55.3633 109.867 54.957C110.039 54.707 110.125 54.1367 110.125 53.2461V42.8633C110.125 42.1602 110.047 41.6523 109.891 41.3398C109.781 41.1133 109.578 40.9258 109.281 40.7773C108.992 40.6211 108.523 40.543 107.875 40.543V40.1094H112.375L118.141 52.543L123.812 40.1094H128.312V40.543H127.762C127.082 40.543 126.602 40.7461 126.32 41.1523C126.148 41.4023 126.062 41.9727 126.062 42.8633V53.2461C126.062 54.2227 126.172 54.832 126.391 55.0742C126.68 55.4023 127.137 55.5664 127.762 55.5664H128.312V56H121.562V55.5664H122.125C122.805 55.5664 123.281 55.3633 123.555 54.957C123.727 54.707 123.812 54.1367 123.812 53.2461V42.6289L117.684 56H117.297ZM134.828 44.9492C136.453 44.9492 137.758 45.5664 138.742 46.8008C139.578 47.8555 139.996 49.0664 139.996 50.4336C139.996 51.3945 139.766 52.3672 139.305 53.3516C138.844 54.3359 138.207 55.0781 137.395 55.5781C136.59 56.0781 135.691 56.3281 134.699 56.3281C133.082 56.3281 131.797 55.6836 130.844 54.3945C130.039 53.3086 129.637 52.0898 129.637 50.7383C129.637 49.7539 129.879 48.7773 130.363 47.8086C130.855 46.832 131.5 46.1133 132.297 45.6523C133.094 45.1836 133.938 44.9492 134.828 44.9492ZM134.465 45.7109C134.051 45.7109 133.633 45.8359 133.211 46.0859C132.797 46.3281 132.461 46.7578 132.203 47.375C131.945 47.9922 131.816 48.7852 131.816 49.7539C131.816 51.3164 132.125 52.6641 132.742 53.7969C133.367 54.9297 134.188 55.4961 135.203 55.4961C135.961 55.4961 136.586 55.1836 137.078 54.5586C137.57 53.9336 137.816 52.8594 137.816 51.3359C137.816 49.4297 137.406 47.9297 136.586 46.8359C136.031 46.0859 135.324 45.7109 134.465 45.7109ZM144.719 44.9492V47.3633C145.617 45.7539 146.539 44.9492 147.484 44.9492C147.914 44.9492 148.27 45.082 148.551 45.3477C148.832 45.6055 148.973 45.9062 148.973 46.25C148.973 46.5547 148.871 46.8125 148.668 47.0234C148.465 47.2344 148.223 47.3398 147.941 47.3398C147.668 47.3398 147.359 47.207 147.016 46.9414C146.68 46.668 146.43 46.5312 146.266 46.5312C146.125 46.5312 145.973 46.6094 145.809 46.7656C145.457 47.0859 145.094 47.6133 144.719 48.3477V53.4922C144.719 54.0859 144.793 54.5352 144.941 54.8398C145.043 55.0508 145.223 55.2266 145.48 55.3672C145.738 55.5078 146.109 55.5781 146.594 55.5781V56H141.098V55.5781C141.645 55.5781 142.051 55.4922 142.316 55.3203C142.512 55.1953 142.648 54.9961 142.727 54.7227C142.766 54.5898 142.785 54.2109 142.785 53.5859V49.4258C142.785 48.1758 142.758 47.4336 142.703 47.1992C142.656 46.957 142.562 46.7812 142.422 46.6719C142.289 46.5625 142.121 46.5078 141.918 46.5078C141.676 46.5078 141.402 46.5664 141.098 46.6836L140.98 46.2617L144.227 44.9492H144.719ZM151.375 49.3086C151.367 50.9023 151.754 52.1523 152.535 53.0586C153.316 53.9648 154.234 54.418 155.289 54.418C155.992 54.418 156.602 54.2266 157.117 53.8438C157.641 53.4531 158.078 52.7891 158.43 51.8516L158.793 52.0859C158.629 53.1562 158.152 54.1328 157.363 55.0156C156.574 55.8906 155.586 56.3281 154.398 56.3281C153.109 56.3281 152.004 55.8281 151.082 54.8281C150.168 53.8203 149.711 52.4688 149.711 50.7734C149.711 48.9375 150.18 47.5078 151.117 46.4844C152.062 45.4531 153.246 44.9375 154.668 44.9375C155.871 44.9375 156.859 45.3359 157.633 46.1328C158.406 46.9219 158.793 47.9805 158.793 49.3086H151.375ZM151.375 48.6289H156.344C156.305 47.9414 156.223 47.457 156.098 47.1758C155.902 46.7383 155.609 46.3945 155.219 46.1445C154.836 45.8945 154.434 45.7695 154.012 45.7695C153.363 45.7695 152.781 46.0234 152.266 46.5312C151.758 47.0312 151.461 47.7305 151.375 48.6289ZM181.703 56H177.461L172.082 48.5703C171.684 48.5859 171.359 48.5938 171.109 48.5938C171.008 48.5938 170.898 48.5938 170.781 48.5938C170.664 48.5859 170.543 48.5781 170.418 48.5703V53.1875C170.418 54.1875 170.527 54.8086 170.746 55.0508C171.043 55.3945 171.488 55.5664 172.082 55.5664H172.703V56H165.895V55.5664H166.492C167.164 55.5664 167.645 55.3477 167.934 54.9102C168.098 54.668 168.18 54.0938 168.18 53.1875V42.9219C168.18 41.9219 168.07 41.3008 167.852 41.0586C167.547 40.7148 167.094 40.543 166.492 40.543H165.895V40.1094H171.684C173.371 40.1094 174.613 40.2344 175.41 40.4844C176.215 40.7266 176.895 41.1797 177.449 41.8438C178.012 42.5 178.293 43.2852 178.293 44.1992C178.293 45.1758 177.973 46.0234 177.332 46.7422C176.699 47.4609 175.715 47.9688 174.379 48.2656L177.66 52.8242C178.41 53.8711 179.055 54.5664 179.594 54.9102C180.133 55.2539 180.836 55.4727 181.703 55.5664V56ZM170.418 47.832C170.566 47.832 170.695 47.8359 170.805 47.8438C170.914 47.8438 171.004 47.8438 171.074 47.8438C172.59 47.8438 173.73 47.5156 174.496 46.8594C175.27 46.2031 175.656 45.3672 175.656 44.3516C175.656 43.3594 175.344 42.5547 174.719 41.9375C174.102 41.3125 173.281 41 172.258 41C171.805 41 171.191 41.0742 170.418 41.2227V47.832ZM184.047 49.3086C184.039 50.9023 184.426 52.1523 185.207 53.0586C185.988 53.9648 186.906 54.418 187.961 54.418C188.664 54.418 189.273 54.2266 189.789 53.8438C190.312 53.4531 190.75 52.7891 191.102 51.8516L191.465 52.0859C191.301 53.1562 190.824 54.1328 190.035 55.0156C189.246 55.8906 188.258 56.3281 187.07 56.3281C185.781 56.3281 184.676 55.8281 183.754 54.8281C182.84 53.8203 182.383 52.4688 182.383 50.7734C182.383 48.9375 182.852 47.5078 183.789 46.4844C184.734 45.4531 185.918 44.9375 187.34 44.9375C188.543 44.9375 189.531 45.3359 190.305 46.1328C191.078 46.9219 191.465 47.9805 191.465 49.3086H184.047ZM184.047 48.6289H189.016C188.977 47.9414 188.895 47.457 188.77 47.1758C188.574 46.7383 188.281 46.3945 187.891 46.1445C187.508 45.8945 187.105 45.7695 186.684 45.7695C186.035 45.7695 185.453 46.0234 184.938 46.5312C184.43 47.0312 184.133 47.7305 184.047 48.6289ZM196.598 39.3359V53.5742C196.598 54.2461 196.645 54.6914 196.738 54.9102C196.84 55.1289 196.992 55.2969 197.195 55.4141C197.398 55.5234 197.777 55.5781 198.332 55.5781V56H193.07V55.5781C193.562 55.5781 193.898 55.5273 194.078 55.4258C194.258 55.3242 194.398 55.1562 194.5 54.9219C194.602 54.6875 194.652 54.2383 194.652 53.5742V43.8242C194.652 42.6133 194.625 41.8711 194.57 41.5977C194.516 41.3164 194.426 41.125 194.301 41.0234C194.184 40.9219 194.031 40.8711 193.844 40.8711C193.641 40.8711 193.383 40.9336 193.07 41.0586L192.871 40.6484L196.07 39.3359H196.598ZM202.316 39.3359C202.645 39.3359 202.922 39.4531 203.148 39.6875C203.383 39.9141 203.5 40.1914 203.5 40.5195C203.5 40.8477 203.383 41.1289 203.148 41.3633C202.922 41.5977 202.645 41.7148 202.316 41.7148C201.988 41.7148 201.707 41.5977 201.473 41.3633C201.238 41.1289 201.121 40.8477 201.121 40.5195C201.121 40.1914 201.234 39.9141 201.461 39.6875C201.695 39.4531 201.98 39.3359 202.316 39.3359ZM203.289 44.9492V53.5742C203.289 54.2461 203.336 54.6953 203.43 54.9219C203.531 55.1406 203.676 55.3047 203.863 55.4141C204.059 55.5234 204.41 55.5781 204.918 55.5781V56H199.703V55.5781C200.227 55.5781 200.578 55.5273 200.758 55.4258C200.938 55.3242 201.078 55.1562 201.18 54.9219C201.289 54.6875 201.344 54.2383 201.344 53.5742V49.4375C201.344 48.2734 201.309 47.5195 201.238 47.1758C201.184 46.9258 201.098 46.7539 200.98 46.6602C200.863 46.5586 200.703 46.5078 200.5 46.5078C200.281 46.5078 200.016 46.5664 199.703 46.6836L199.539 46.2617L202.773 44.9492H203.289ZM212.348 54.4531C211.246 55.3047 210.555 55.7969 210.273 55.9297C209.852 56.125 209.402 56.2227 208.926 56.2227C208.184 56.2227 207.57 55.9688 207.086 55.4609C206.609 54.9531 206.371 54.2852 206.371 53.457C206.371 52.9336 206.488 52.4805 206.723 52.0977C207.043 51.5664 207.598 51.0664 208.387 50.5977C209.184 50.1289 210.504 49.5586 212.348 48.8867V48.4648C212.348 47.3945 212.176 46.6602 211.832 46.2617C211.496 45.8633 211.004 45.6641 210.355 45.6641C209.863 45.6641 209.473 45.7969 209.184 46.0625C208.887 46.3281 208.738 46.6328 208.738 46.9766L208.762 47.6562C208.762 48.0156 208.668 48.293 208.48 48.4883C208.301 48.6836 208.062 48.7812 207.766 48.7812C207.477 48.7812 207.238 48.6797 207.051 48.4766C206.871 48.2734 206.781 47.9961 206.781 47.6445C206.781 46.9727 207.125 46.3555 207.812 45.793C208.5 45.2305 209.465 44.9492 210.707 44.9492C211.66 44.9492 212.441 45.1094 213.051 45.4297C213.512 45.6719 213.852 46.0508 214.07 46.5664C214.211 46.9023 214.281 47.5898 214.281 48.6289V52.2734C214.281 53.2969 214.301 53.9258 214.34 54.1602C214.379 54.3867 214.441 54.5391 214.527 54.6172C214.621 54.6953 214.727 54.7344 214.844 54.7344C214.969 54.7344 215.078 54.707 215.172 54.6523C215.336 54.5508 215.652 54.2656 216.121 53.7969V54.4531C215.246 55.625 214.41 56.2109 213.613 56.2109C213.23 56.2109 212.926 56.0781 212.699 55.8125C212.473 55.5469 212.355 55.0938 212.348 54.4531ZM212.348 53.6914V49.6016C211.168 50.0703 210.406 50.4023 210.062 50.5977C209.445 50.9414 209.004 51.3008 208.738 51.6758C208.473 52.0508 208.34 52.4609 208.34 52.9062C208.34 53.4688 208.508 53.9375 208.844 54.3125C209.18 54.6797 209.566 54.8633 210.004 54.8633C210.598 54.8633 211.379 54.4727 212.348 53.6914ZM219.871 47.1172C220.91 45.6719 222.031 44.9492 223.234 44.9492C224.336 44.9492 225.297 45.4219 226.117 46.3672C226.938 47.3047 227.348 48.5898 227.348 50.2227C227.348 52.1289 226.715 53.6641 225.449 54.8281C224.363 55.8281 223.152 56.3281 221.816 56.3281C221.191 56.3281 220.555 56.2148 219.906 55.9883C219.266 55.7617 218.609 55.4219 217.938 54.9688V43.8477C217.938 42.6289 217.906 41.8789 217.844 41.5977C217.789 41.3164 217.699 41.125 217.574 41.0234C217.449 40.9219 217.293 40.8711 217.105 40.8711C216.887 40.8711 216.613 40.9336 216.285 41.0586L216.121 40.6484L219.344 39.3359H219.871V47.1172ZM219.871 47.8672V54.2891C220.27 54.6797 220.68 54.9766 221.102 55.1797C221.531 55.375 221.969 55.4727 222.414 55.4727C223.125 55.4727 223.785 55.082 224.395 54.3008C225.012 53.5195 225.32 52.3828 225.32 50.8906C225.32 49.5156 225.012 48.4609 224.395 47.7266C223.785 46.9844 223.09 46.6133 222.309 46.6133C221.895 46.6133 221.48 46.7188 221.066 46.9297C220.754 47.0859 220.355 47.3984 219.871 47.8672ZM232.621 39.3359V53.5742C232.621 54.2461 232.668 54.6914 232.762 54.9102C232.863 55.1289 233.016 55.2969 233.219 55.4141C233.422 55.5234 233.801 55.5781 234.355 55.5781V56H229.094V55.5781C229.586 55.5781 229.922 55.5273 230.102 55.4258C230.281 55.3242 230.422 55.1562 230.523 54.9219C230.625 54.6875 230.676 54.2383 230.676 53.5742V43.8242C230.676 42.6133 230.648 41.8711 230.594 41.5977C230.539 41.3164 230.449 41.125 230.324 41.0234C230.207 40.9219 230.055 40.8711 229.867 40.8711C229.664 40.8711 229.406 40.9336 229.094 41.0586L228.895 40.6484L232.094 39.3359H232.621ZM237.414 49.3086C237.406 50.9023 237.793 52.1523 238.574 53.0586C239.355 53.9648 240.273 54.418 241.328 54.418C242.031 54.418 242.641 54.2266 243.156 53.8438C243.68 53.4531 244.117 52.7891 244.469 51.8516L244.832 52.0859C244.668 53.1562 244.191 54.1328 243.402 55.0156C242.613 55.8906 241.625 56.3281 240.438 56.3281C239.148 56.3281 238.043 55.8281 237.121 54.8281C236.207 53.8203 235.75 52.4688 235.75 50.7734C235.75 48.9375 236.219 47.5078 237.156 46.4844C238.102 45.4531 239.285 44.9375 240.707 44.9375C241.91 44.9375 242.898 45.3359 243.672 46.1328C244.445 46.9219 244.832 47.9805 244.832 49.3086H237.414ZM237.414 48.6289H242.383C242.344 47.9414 242.262 47.457 242.137 47.1758C241.941 46.7383 241.648 46.3945 241.258 46.1445C240.875 45.8945 240.473 45.7695 240.051 45.7695C239.402 45.7695 238.82 46.0234 238.305 46.5312C237.797 47.0312 237.5 47.7305 237.414 48.6289Z" fill="black"/>
<path d="M595.297 467L589.156 453.629V464.246C589.156 465.223 589.262 465.832 589.473 466.074C589.762 466.402 590.219 466.566 590.844 466.566H591.406V467H585.875V466.566H586.438C587.109 466.566 587.586 466.363 587.867 465.957C588.039 465.707 588.125 465.137 588.125 464.246V453.863C588.125 453.16 588.047 452.652 587.891 452.34C587.781 452.113 587.578 451.926 587.281 451.777C586.992 451.621 586.523 451.543 585.875 451.543V451.109H590.375L596.141 463.543L601.812 451.109H606.312V451.543H605.762C605.082 451.543 604.602 451.746 604.32 452.152C604.148 452.402 604.062 452.973 604.062 453.863V464.246C604.062 465.223 604.172 465.832 604.391 466.074C604.68 466.402 605.137 466.566 605.762 466.566H606.312V467H599.562V466.566H600.125C600.805 466.566 601.281 466.363 601.555 465.957C601.727 465.707 601.812 465.137 601.812 464.246V453.629L595.684 467H595.297ZM612.828 455.949C614.453 455.949 615.758 456.566 616.742 457.801C617.578 458.855 617.996 460.066 617.996 461.434C617.996 462.395 617.766 463.367 617.305 464.352C616.844 465.336 616.207 466.078 615.395 466.578C614.59 467.078 613.691 467.328 612.699 467.328C611.082 467.328 609.797 466.684 608.844 465.395C608.039 464.309 607.637 463.09 607.637 461.738C607.637 460.754 607.879 459.777 608.363 458.809C608.855 457.832 609.5 457.113 610.297 456.652C611.094 456.184 611.938 455.949 612.828 455.949ZM612.465 456.711C612.051 456.711 611.633 456.836 611.211 457.086C610.797 457.328 610.461 457.758 610.203 458.375C609.945 458.992 609.816 459.785 609.816 460.754C609.816 462.316 610.125 463.664 610.742 464.797C611.367 465.93 612.188 466.496 613.203 466.496C613.961 466.496 614.586 466.184 615.078 465.559C615.57 464.934 615.816 463.859 615.816 462.336C615.816 460.43 615.406 458.93 614.586 457.836C614.031 457.086 613.324 456.711 612.465 456.711ZM622.719 455.949V458.363C623.617 456.754 624.539 455.949 625.484 455.949C625.914 455.949 626.27 456.082 626.551 456.348C626.832 456.605 626.973 456.906 626.973 457.25C626.973 457.555 626.871 457.812 626.668 458.023C626.465 458.234 626.223 458.34 625.941 458.34C625.668 458.34 625.359 458.207 625.016 457.941C624.68 457.668 624.43 457.531 624.266 457.531C624.125 457.531 623.973 457.609 623.809 457.766C623.457 458.086 623.094 458.613 622.719 459.348V464.492C622.719 465.086 622.793 465.535 622.941 465.84C623.043 466.051 623.223 466.227 623.48 466.367C623.738 466.508 624.109 466.578 624.594 466.578V467H619.098V466.578C619.645 466.578 620.051 466.492 620.316 466.32C620.512 466.195 620.648 465.996 620.727 465.723C620.766 465.59 620.785 465.211 620.785 464.586V460.426C620.785 459.176 620.758 458.434 620.703 458.199C620.656 457.957 620.562 457.781 620.422 457.672C620.289 457.562 620.121 457.508 619.918 457.508C619.676 457.508 619.402 457.566 619.098 457.684L618.98 457.262L622.227 455.949H622.719ZM629.375 460.309C629.367 461.902 629.754 463.152 630.535 464.059C631.316 464.965 632.234 465.418 633.289 465.418C633.992 465.418 634.602 465.227 635.117 464.844C635.641 464.453 636.078 463.789 636.43 462.852L636.793 463.086C636.629 464.156 636.152 465.133 635.363 466.016C634.574 466.891 633.586 467.328 632.398 467.328C631.109 467.328 630.004 466.828 629.082 465.828C628.168 464.82 627.711 463.469 627.711 461.773C627.711 459.938 628.18 458.508 629.117 457.484C630.062 456.453 631.246 455.938 632.668 455.938C633.871 455.938 634.859 456.336 635.633 457.133C636.406 457.922 636.793 458.98 636.793 460.309H629.375ZM629.375 459.629H634.344C634.305 458.941 634.223 458.457 634.098 458.176C633.902 457.738 633.609 457.395 633.219 457.145C632.836 456.895 632.434 456.77 632.012 456.77C631.363 456.77 630.781 457.023 630.266 457.531C629.758 458.031 629.461 458.73 629.375 459.629ZM648.406 459.559V464.188C648.406 465.188 648.516 465.809 648.734 466.051C649.031 466.395 649.48 466.566 650.082 466.566H650.691V467H643.883V466.566H644.48C645.152 466.566 645.633 466.348 645.922 465.91C646.078 465.668 646.156 465.094 646.156 464.188V453.922C646.156 452.922 646.051 452.301 645.84 452.059C645.535 451.715 645.082 451.543 644.48 451.543H643.883V451.109H649.707C651.129 451.109 652.25 451.258 653.07 451.555C653.891 451.844 654.582 452.336 655.145 453.031C655.707 453.727 655.988 454.551 655.988 455.504C655.988 456.801 655.559 457.855 654.699 458.668C653.848 459.48 652.641 459.887 651.078 459.887C650.695 459.887 650.281 459.859 649.836 459.805C649.391 459.75 648.914 459.668 648.406 459.559ZM648.406 458.891C648.82 458.969 649.188 459.027 649.508 459.066C649.828 459.105 650.102 459.125 650.328 459.125C651.141 459.125 651.84 458.812 652.426 458.188C653.02 457.555 653.316 456.738 653.316 455.738C653.316 455.051 653.176 454.414 652.895 453.828C652.613 453.234 652.215 452.793 651.699 452.504C651.184 452.207 650.598 452.059 649.941 452.059C649.543 452.059 649.031 452.133 648.406 452.281V458.891ZM660.734 455.949V458.363C661.633 456.754 662.555 455.949 663.5 455.949C663.93 455.949 664.285 456.082 664.566 456.348C664.848 456.605 664.988 456.906 664.988 457.25C664.988 457.555 664.887 457.812 664.684 458.023C664.48 458.234 664.238 458.34 663.957 458.34C663.684 458.34 663.375 458.207 663.031 457.941C662.695 457.668 662.445 457.531 662.281 457.531C662.141 457.531 661.988 457.609 661.824 457.766C661.473 458.086 661.109 458.613 660.734 459.348V464.492C660.734 465.086 660.809 465.535 660.957 465.84C661.059 466.051 661.238 466.227 661.496 466.367C661.754 466.508 662.125 466.578 662.609 466.578V467H657.113V466.578C657.66 466.578 658.066 466.492 658.332 466.32C658.527 466.195 658.664 465.996 658.742 465.723C658.781 465.59 658.801 465.211 658.801 464.586V460.426C658.801 459.176 658.773 458.434 658.719 458.199C658.672 457.957 658.578 457.781 658.438 457.672C658.305 457.562 658.137 457.508 657.934 457.508C657.691 457.508 657.418 457.566 657.113 457.684L656.996 457.262L660.242 455.949H660.734ZM670.836 455.949C672.461 455.949 673.766 456.566 674.75 457.801C675.586 458.855 676.004 460.066 676.004 461.434C676.004 462.395 675.773 463.367 675.312 464.352C674.852 465.336 674.215 466.078 673.402 466.578C672.598 467.078 671.699 467.328 670.707 467.328C669.09 467.328 667.805 466.684 666.852 465.395C666.047 464.309 665.645 463.09 665.645 461.738C665.645 460.754 665.887 459.777 666.371 458.809C666.863 457.832 667.508 457.113 668.305 456.652C669.102 456.184 669.945 455.949 670.836 455.949ZM670.473 456.711C670.059 456.711 669.641 456.836 669.219 457.086C668.805 457.328 668.469 457.758 668.211 458.375C667.953 458.992 667.824 459.785 667.824 460.754C667.824 462.316 668.133 463.664 668.75 464.797C669.375 465.93 670.195 466.496 671.211 466.496C671.969 466.496 672.594 466.184 673.086 465.559C673.578 464.934 673.824 463.859 673.824 462.336C673.824 460.43 673.414 458.93 672.594 457.836C672.039 457.086 671.332 456.711 670.473 456.711ZM685.168 465.793C684.645 466.34 684.133 466.734 683.633 466.977C683.133 467.211 682.594 467.328 682.016 467.328C680.844 467.328 679.82 466.84 678.945 465.863C678.07 464.879 677.633 463.617 677.633 462.078C677.633 460.539 678.117 459.133 679.086 457.859C680.055 456.578 681.301 455.938 682.824 455.938C683.77 455.938 684.551 456.238 685.168 456.84V454.859C685.168 453.633 685.137 452.879 685.074 452.598C685.02 452.316 684.93 452.125 684.805 452.023C684.68 451.922 684.523 451.871 684.336 451.871C684.133 451.871 683.863 451.934 683.527 452.059L683.375 451.648L686.574 450.336H687.102V462.746C687.102 464.004 687.129 464.773 687.184 465.055C687.246 465.328 687.34 465.52 687.465 465.629C687.598 465.738 687.75 465.793 687.922 465.793C688.133 465.793 688.414 465.727 688.766 465.594L688.895 466.004L685.707 467.328H685.168V465.793ZM685.168 464.973V459.441C685.121 458.91 684.98 458.426 684.746 457.988C684.512 457.551 684.199 457.223 683.809 457.004C683.426 456.777 683.051 456.664 682.684 456.664C681.996 456.664 681.383 456.973 680.844 457.59C680.133 458.402 679.777 459.59 679.777 461.152C679.777 462.73 680.121 463.941 680.809 464.785C681.496 465.621 682.262 466.039 683.105 466.039C683.816 466.039 684.504 465.684 685.168 464.973ZM698.996 456.266V462.77C698.996 464.012 699.023 464.773 699.078 465.055C699.141 465.328 699.234 465.52 699.359 465.629C699.492 465.738 699.645 465.793 699.816 465.793C700.059 465.793 700.332 465.727 700.637 465.594L700.801 466.004L697.59 467.328H697.062V465.055C696.141 466.055 695.438 466.684 694.953 466.941C694.469 467.199 693.957 467.328 693.418 467.328C692.816 467.328 692.293 467.156 691.848 466.812C691.41 466.461 691.105 466.012 690.934 465.465C690.762 464.918 690.676 464.145 690.676 463.145V458.352C690.676 457.844 690.621 457.492 690.512 457.297C690.402 457.102 690.238 456.953 690.02 456.852C689.809 456.742 689.422 456.691 688.859 456.699V456.266H692.621V463.449C692.621 464.449 692.793 465.105 693.137 465.418C693.488 465.73 693.91 465.887 694.402 465.887C694.738 465.887 695.117 465.781 695.539 465.57C695.969 465.359 696.477 464.957 697.062 464.363V458.281C697.062 457.672 696.949 457.262 696.723 457.051C696.504 456.832 696.043 456.715 695.34 456.699V456.266H698.996ZM710.703 462.922C710.414 464.336 709.848 465.426 709.004 466.191C708.16 466.949 707.227 467.328 706.203 467.328C704.984 467.328 703.922 466.816 703.016 465.793C702.109 464.77 701.656 463.387 701.656 461.645C701.656 459.957 702.156 458.586 703.156 457.531C704.164 456.477 705.371 455.949 706.777 455.949C707.832 455.949 708.699 456.23 709.379 456.793C710.059 457.348 710.398 457.926 710.398 458.527C710.398 458.824 710.301 459.066 710.105 459.254C709.918 459.434 709.652 459.523 709.309 459.523C708.848 459.523 708.5 459.375 708.266 459.078C708.133 458.914 708.043 458.602 707.996 458.141C707.957 457.68 707.801 457.328 707.527 457.086C707.254 456.852 706.875 456.734 706.391 456.734C705.609 456.734 704.98 457.023 704.504 457.602C703.871 458.367 703.555 459.379 703.555 460.637C703.555 461.918 703.867 463.051 704.492 464.035C705.125 465.012 705.977 465.5 707.047 465.5C707.812 465.5 708.5 465.238 709.109 464.715C709.539 464.355 709.957 463.703 710.363 462.758L710.703 462.922ZM715.367 452.738V456.266H717.875V457.086H715.367V464.047C715.367 464.742 715.465 465.211 715.66 465.453C715.863 465.695 716.121 465.816 716.434 465.816C716.691 465.816 716.941 465.738 717.184 465.582C717.426 465.418 717.613 465.18 717.746 464.867H718.203C717.93 465.633 717.543 466.211 717.043 466.602C716.543 466.984 716.027 467.176 715.496 467.176C715.137 467.176 714.785 467.078 714.441 466.883C714.098 466.68 713.844 466.395 713.68 466.027C713.516 465.652 713.434 465.078 713.434 464.305V457.086H711.734V456.699C712.164 456.527 712.602 456.238 713.047 455.832C713.5 455.418 713.902 454.93 714.254 454.367C714.434 454.07 714.684 453.527 715.004 452.738H715.367ZM721.66 450.336C721.988 450.336 722.266 450.453 722.492 450.688C722.727 450.914 722.844 451.191 722.844 451.52C722.844 451.848 722.727 452.129 722.492 452.363C722.266 452.598 721.988 452.715 721.66 452.715C721.332 452.715 721.051 452.598 720.816 452.363C720.582 452.129 720.465 451.848 720.465 451.52C720.465 451.191 720.578 450.914 720.805 450.688C721.039 450.453 721.324 450.336 721.66 450.336ZM722.633 455.949V464.574C722.633 465.246 722.68 465.695 722.773 465.922C722.875 466.141 723.02 466.305 723.207 466.414C723.402 466.523 723.754 466.578 724.262 466.578V467H719.047V466.578C719.57 466.578 719.922 466.527 720.102 466.426C720.281 466.324 720.422 466.156 720.523 465.922C720.633 465.688 720.688 465.238 720.688 464.574V460.438C720.688 459.273 720.652 458.52 720.582 458.176C720.527 457.926 720.441 457.754 720.324 457.66C720.207 457.559 720.047 457.508 719.844 457.508C719.625 457.508 719.359 457.566 719.047 457.684L718.883 457.262L722.117 455.949H722.633ZM725.059 456.266H730.109V456.699H729.781C729.477 456.699 729.242 456.773 729.078 456.922C728.922 457.07 728.844 457.27 728.844 457.52C728.844 457.793 728.926 458.117 729.09 458.492L731.586 464.422L734.094 458.27C734.273 457.832 734.363 457.5 734.363 457.273C734.363 457.164 734.332 457.074 734.27 457.004C734.184 456.887 734.074 456.809 733.941 456.77C733.809 456.723 733.539 456.699 733.133 456.699V456.266H736.637V456.699C736.23 456.73 735.949 456.812 735.793 456.945C735.52 457.18 735.273 457.57 735.055 458.117L731.246 467.328H730.766L726.934 458.27C726.762 457.848 726.598 457.547 726.441 457.367C726.285 457.18 726.086 457.023 725.844 456.898C725.711 456.828 725.449 456.762 725.059 456.699V456.266ZM739.414 460.309C739.406 461.902 739.793 463.152 740.574 464.059C741.355 464.965 742.273 465.418 743.328 465.418C744.031 465.418 744.641 465.227 745.156 464.844C745.68 464.453 746.117 463.789 746.469 462.852L746.832 463.086C746.668 464.156 746.191 465.133 745.402 466.016C744.613 466.891 743.625 467.328 742.438 467.328C741.148 467.328 740.043 466.828 739.121 465.828C738.207 464.82 737.75 463.469 737.75 461.773C737.75 459.938 738.219 458.508 739.156 457.484C740.102 456.453 741.285 455.938 742.707 455.938C743.91 455.938 744.898 456.336 745.672 457.133C746.445 457.922 746.832 458.98 746.832 460.309H739.414ZM739.414 459.629H744.383C744.344 458.941 744.262 458.457 744.137 458.176C743.941 457.738 743.648 457.395 743.258 457.145C742.875 456.895 742.473 456.77 742.051 456.77C741.402 456.77 740.82 457.023 740.305 457.531C739.797 458.031 739.5 458.73 739.414 459.629Z" fill="black"/>
<path d="M572.891 56V55.5664H573.488C574.16 55.5664 574.637 55.3516 574.918 54.9219C575.09 54.6641 575.176 54.0859 575.176 53.1875V42.9219C575.176 41.9297 575.066 41.3086 574.848 41.0586C574.543 40.7148 574.09 40.543 573.488 40.543H572.891V40.1094H579.359C581.734 40.1094 583.539 40.3789 584.773 40.918C586.016 41.457 587.012 42.3555 587.762 43.6133C588.52 44.8711 588.898 46.3242 588.898 47.9727C588.898 50.1836 588.227 52.0312 586.883 53.5156C585.375 55.1719 583.078 56 579.992 56H572.891ZM577.426 54.8516C578.418 55.0703 579.25 55.1797 579.922 55.1797C581.734 55.1797 583.238 54.543 584.434 53.2695C585.629 51.9961 586.227 50.2695 586.227 48.0898C586.227 45.8945 585.629 44.1641 584.434 42.8984C583.238 41.6328 581.703 41 579.828 41C579.125 41 578.324 41.1133 577.426 41.3398V54.8516ZM592.379 49.3086C592.371 50.9023 592.758 52.1523 593.539 53.0586C594.32 53.9648 595.238 54.418 596.293 54.418C596.996 54.418 597.605 54.2266 598.121 53.8438C598.645 53.4531 599.082 52.7891 599.434 51.8516L599.797 52.0859C599.633 53.1562 599.156 54.1328 598.367 55.0156C597.578 55.8906 596.59 56.3281 595.402 56.3281C594.113 56.3281 593.008 55.8281 592.086 54.8281C591.172 53.8203 590.715 52.4688 590.715 50.7734C590.715 48.9375 591.184 47.5078 592.121 46.4844C593.066 45.4531 594.25 44.9375 595.672 44.9375C596.875 44.9375 597.863 45.3359 598.637 46.1328C599.41 46.9219 599.797 47.9805 599.797 49.3086H592.379ZM592.379 48.6289H597.348C597.309 47.9414 597.227 47.457 597.102 47.1758C596.906 46.7383 596.613 46.3945 596.223 46.1445C595.84 45.8945 595.438 45.7695 595.016 45.7695C594.367 45.7695 593.785 46.0234 593.27 46.5312C592.762 47.0312 592.465 47.7305 592.379 48.6289ZM600.465 46.332L603.77 44.9961H604.215V47.5039C604.77 46.5586 605.324 45.8984 605.879 45.5234C606.441 45.1406 607.031 44.9492 607.648 44.9492C608.727 44.9492 609.625 45.3711 610.344 46.2148C611.227 47.2461 611.668 48.5898 611.668 50.2461C611.668 52.0977 611.137 53.6289 610.074 54.8398C609.199 55.832 608.098 56.3281 606.77 56.3281C606.191 56.3281 605.691 56.2461 605.27 56.082C604.957 55.9648 604.605 55.7305 604.215 55.3789V58.6484C604.215 59.3828 604.258 59.8477 604.344 60.043C604.438 60.2461 604.594 60.4062 604.812 60.5234C605.039 60.6406 605.445 60.6992 606.031 60.6992V61.1328H600.406V60.6992H600.699C601.129 60.707 601.496 60.625 601.801 60.4531C601.949 60.3672 602.062 60.2266 602.141 60.0312C602.227 59.8438 602.27 59.3594 602.27 58.5781V48.4297C602.27 47.7344 602.238 47.293 602.176 47.1055C602.113 46.918 602.012 46.7773 601.871 46.6836C601.738 46.5898 601.555 46.543 601.32 46.543C601.133 46.543 600.895 46.5977 600.605 46.707L600.465 46.332ZM604.215 48.1953V52.2031C604.215 53.0703 604.25 53.6406 604.32 53.9141C604.43 54.3672 604.695 54.7656 605.117 55.1094C605.547 55.4531 606.086 55.625 606.734 55.625C607.516 55.625 608.148 55.3203 608.633 54.7109C609.266 53.9141 609.582 52.793 609.582 51.3477C609.582 49.707 609.223 48.4453 608.504 47.5625C608.004 46.9531 607.41 46.6484 606.723 46.6484C606.348 46.6484 605.977 46.7422 605.609 46.9297C605.328 47.0703 604.863 47.4922 604.215 48.1953ZM616.93 39.3359V53.5742C616.93 54.2461 616.977 54.6914 617.07 54.9102C617.172 55.1289 617.324 55.2969 617.527 55.4141C617.73 55.5234 618.109 55.5781 618.664 55.5781V56H613.402V55.5781C613.895 55.5781 614.23 55.5273 614.41 55.4258C614.59 55.3242 614.73 55.1562 614.832 54.9219C614.934 54.6875 614.984 54.2383 614.984 53.5742V43.8242C614.984 42.6133 614.957 41.8711 614.902 41.5977C614.848 41.3164 614.758 41.125 614.633 41.0234C614.516 40.9219 614.363 40.8711 614.176 40.8711C613.973 40.8711 613.715 40.9336 613.402 41.0586L613.203 40.6484L616.402 39.3359H616.93ZM625.168 44.9492C626.793 44.9492 628.098 45.5664 629.082 46.8008C629.918 47.8555 630.336 49.0664 630.336 50.4336C630.336 51.3945 630.105 52.3672 629.645 53.3516C629.184 54.3359 628.547 55.0781 627.734 55.5781C626.93 56.0781 626.031 56.3281 625.039 56.3281C623.422 56.3281 622.137 55.6836 621.184 54.3945C620.379 53.3086 619.977 52.0898 619.977 50.7383C619.977 49.7539 620.219 48.7773 620.703 47.8086C621.195 46.832 621.84 46.1133 622.637 45.6523C623.434 45.1836 624.277 44.9492 625.168 44.9492ZM624.805 45.7109C624.391 45.7109 623.973 45.8359 623.551 46.0859C623.137 46.3281 622.801 46.7578 622.543 47.375C622.285 47.9922 622.156 48.7852 622.156 49.7539C622.156 51.3164 622.465 52.6641 623.082 53.7969C623.707 54.9297 624.527 55.4961 625.543 55.4961C626.301 55.4961 626.926 55.1836 627.418 54.5586C627.91 53.9336 628.156 52.8594 628.156 51.3359C628.156 49.4297 627.746 47.9297 626.926 46.8359C626.371 46.0859 625.664 45.7109 624.805 45.7109ZM631.309 45.2656H636.312V45.6992H636.066C635.715 45.6992 635.449 45.7773 635.27 45.9336C635.098 46.082 635.012 46.2695 635.012 46.4961C635.012 46.8008 635.141 47.2227 635.398 47.7617L638.012 53.1758L640.414 47.2461C640.547 46.9258 640.613 46.6094 640.613 46.2969C640.613 46.1562 640.586 46.0508 640.531 45.9805C640.469 45.8945 640.371 45.8281 640.238 45.7812C640.105 45.7266 639.871 45.6992 639.535 45.6992V45.2656H643.027V45.6992C642.738 45.7305 642.516 45.793 642.359 45.8867C642.203 45.9805 642.031 46.1562 641.844 46.4141C641.773 46.5234 641.641 46.8242 641.445 47.3164L637.074 58.0273C636.652 59.0664 636.098 59.8516 635.41 60.3828C634.73 60.9141 634.074 61.1797 633.441 61.1797C632.98 61.1797 632.602 61.0469 632.305 60.7812C632.008 60.5156 631.859 60.2109 631.859 59.8672C631.859 59.5391 631.965 59.2734 632.176 59.0703C632.395 58.875 632.691 58.7773 633.066 58.7773C633.324 58.7773 633.676 58.8633 634.121 59.0352C634.434 59.1523 634.629 59.2109 634.707 59.2109C634.941 59.2109 635.195 59.0898 635.469 58.8477C635.75 58.6055 636.031 58.1367 636.312 57.4414L637.074 55.5781L633.219 47.4805C633.102 47.2383 632.914 46.9375 632.656 46.5781C632.461 46.3047 632.301 46.1211 632.176 46.0273C631.996 45.9023 631.707 45.793 631.309 45.6992V45.2656ZM647.105 47.2344C647.887 46.4531 648.348 46.0039 648.488 45.8867C648.84 45.5898 649.219 45.3594 649.625 45.1953C650.031 45.0312 650.434 44.9492 650.832 44.9492C651.504 44.9492 652.082 45.1445 652.566 45.5352C653.051 45.9258 653.375 46.4922 653.539 47.2344C654.344 46.2969 655.023 45.6836 655.578 45.3945C656.133 45.0977 656.703 44.9492 657.289 44.9492C657.859 44.9492 658.363 45.0977 658.801 45.3945C659.246 45.6836 659.598 46.1602 659.855 46.8242C660.027 47.2773 660.113 47.9883 660.113 48.957V53.5742C660.113 54.2461 660.164 54.707 660.266 54.957C660.344 55.1289 660.488 55.2773 660.699 55.4023C660.91 55.5195 661.254 55.5781 661.73 55.5781V56H656.434V55.5781H656.656C657.117 55.5781 657.477 55.4883 657.734 55.3086C657.914 55.1836 658.043 54.9844 658.121 54.7109C658.152 54.5781 658.168 54.1992 658.168 53.5742V48.957C658.168 48.082 658.062 47.4648 657.852 47.1055C657.547 46.6055 657.059 46.3555 656.387 46.3555C655.973 46.3555 655.555 46.4609 655.133 46.6719C654.719 46.875 654.215 47.2578 653.621 47.8203L653.598 47.9492L653.621 48.4531V53.5742C653.621 54.3086 653.66 54.7656 653.738 54.9453C653.824 55.125 653.98 55.2773 654.207 55.4023C654.434 55.5195 654.82 55.5781 655.367 55.5781V56H649.941V55.5781C650.535 55.5781 650.941 55.5078 651.16 55.3672C651.387 55.2266 651.543 55.0156 651.629 54.7344C651.668 54.6016 651.688 54.2148 651.688 53.5742V48.957C651.688 48.082 651.559 47.4531 651.301 47.0703C650.957 46.5703 650.477 46.3203 649.859 46.3203C649.438 46.3203 649.02 46.4336 648.605 46.6602C647.957 47.0039 647.457 47.3906 647.105 47.8203V53.5742C647.105 54.2773 647.152 54.7344 647.246 54.9453C647.348 55.1562 647.492 55.3164 647.68 55.4258C647.875 55.5273 648.266 55.5781 648.852 55.5781V56H643.543V55.5781C644.035 55.5781 644.379 55.5273 644.574 55.4258C644.77 55.3164 644.918 55.1484 645.02 54.9219C645.121 54.6875 645.172 54.2383 645.172 53.5742V49.4727C645.172 48.293 645.137 47.5312 645.066 47.1875C645.012 46.9297 644.926 46.7539 644.809 46.6602C644.691 46.5586 644.531 46.5078 644.328 46.5078C644.109 46.5078 643.848 46.5664 643.543 46.6836L643.367 46.2617L646.602 44.9492H647.105V47.2344ZM664.402 49.3086C664.395 50.9023 664.781 52.1523 665.562 53.0586C666.344 53.9648 667.262 54.418 668.316 54.418C669.02 54.418 669.629 54.2266 670.145 53.8438C670.668 53.4531 671.105 52.7891 671.457 51.8516L671.82 52.0859C671.656 53.1562 671.18 54.1328 670.391 55.0156C669.602 55.8906 668.613 56.3281 667.426 56.3281C666.137 56.3281 665.031 55.8281 664.109 54.8281C663.195 53.8203 662.738 52.4688 662.738 50.7734C662.738 48.9375 663.207 47.5078 664.145 46.4844C665.09 45.4531 666.273 44.9375 667.695 44.9375C668.898 44.9375 669.887 45.3359 670.66 46.1328C671.434 46.9219 671.82 47.9805 671.82 49.3086H664.402ZM664.402 48.6289H669.371C669.332 47.9414 669.25 47.457 669.125 47.1758C668.93 46.7383 668.637 46.3945 668.246 46.1445C667.863 45.8945 667.461 45.7695 667.039 45.7695C666.391 45.7695 665.809 46.0234 665.293 46.5312C664.785 47.0312 664.488 47.7305 664.402 48.6289ZM676.391 47.2227C677.648 45.707 678.848 44.9492 679.988 44.9492C680.574 44.9492 681.078 45.0977 681.5 45.3945C681.922 45.6836 682.258 46.1641 682.508 46.8359C682.68 47.3047 682.766 48.0234 682.766 48.9922V53.5742C682.766 54.2539 682.82 54.7148 682.93 54.957C683.016 55.1523 683.152 55.3047 683.34 55.4141C683.535 55.5234 683.891 55.5781 684.406 55.5781V56H679.098V55.5781H679.32C679.82 55.5781 680.168 55.5039 680.363 55.3555C680.566 55.1992 680.707 54.9727 680.785 54.6758C680.816 54.5586 680.832 54.1914 680.832 53.5742V49.1797C680.832 48.2031 680.703 47.4961 680.445 47.0586C680.195 46.6133 679.77 46.3906 679.168 46.3906C678.238 46.3906 677.312 46.8984 676.391 47.9141V53.5742C676.391 54.3008 676.434 54.75 676.52 54.9219C676.629 55.1484 676.777 55.3164 676.965 55.4258C677.16 55.5273 677.551 55.5781 678.137 55.5781V56H672.828V55.5781H673.062C673.609 55.5781 673.977 55.4414 674.164 55.168C674.359 54.8867 674.457 54.3555 674.457 53.5742V49.5898C674.457 48.3008 674.426 47.5156 674.363 47.2344C674.309 46.9531 674.219 46.7617 674.094 46.6602C673.977 46.5586 673.816 46.5078 673.613 46.5078C673.395 46.5078 673.133 46.5664 672.828 46.6836L672.652 46.2617L675.887 44.9492H676.391V47.2227ZM688.379 41.7383V45.2656H690.887V46.0859H688.379V53.0469C688.379 53.7422 688.477 54.2109 688.672 54.4531C688.875 54.6953 689.133 54.8164 689.445 54.8164C689.703 54.8164 689.953 54.7383 690.195 54.582C690.438 54.418 690.625 54.1797 690.758 53.8672H691.215C690.941 54.6328 690.555 55.2109 690.055 55.6016C689.555 55.9844 689.039 56.1758 688.508 56.1758C688.148 56.1758 687.797 56.0781 687.453 55.8828C687.109 55.6797 686.855 55.3945 686.691 55.0273C686.527 54.6523 686.445 54.0781 686.445 53.3047V46.0859H684.746V45.6992C685.176 45.5273 685.613 45.2383 686.059 44.832C686.512 44.418 686.914 43.9297 687.266 43.3672C687.445 43.0703 687.695 42.5273 688.016 41.7383H688.379ZM692.164 49.7305H698.223V51.5H692.164V49.7305ZM715.402 56H711.16L705.781 48.5703C705.383 48.5859 705.059 48.5938 704.809 48.5938C704.707 48.5938 704.598 48.5938 704.48 48.5938C704.363 48.5859 704.242 48.5781 704.117 48.5703V53.1875C704.117 54.1875 704.227 54.8086 704.445 55.0508C704.742 55.3945 705.188 55.5664 705.781 55.5664H706.402V56H699.594V55.5664H700.191C700.863 55.5664 701.344 55.3477 701.633 54.9102C701.797 54.668 701.879 54.0938 701.879 53.1875V42.9219C701.879 41.9219 701.77 41.3008 701.551 41.0586C701.246 40.7148 700.793 40.543 700.191 40.543H699.594V40.1094H705.383C707.07 40.1094 708.312 40.2344 709.109 40.4844C709.914 40.7266 710.594 41.1797 711.148 41.8438C711.711 42.5 711.992 43.2852 711.992 44.1992C711.992 45.1758 711.672 46.0234 711.031 46.7422C710.398 47.4609 709.414 47.9688 708.078 48.2656L711.359 52.8242C712.109 53.8711 712.754 54.5664 713.293 54.9102C713.832 55.2539 714.535 55.4727 715.402 55.5664V56ZM704.117 47.832C704.266 47.832 704.395 47.8359 704.504 47.8438C704.613 47.8438 704.703 47.8438 704.773 47.8438C706.289 47.8438 707.43 47.5156 708.195 46.8594C708.969 46.2031 709.355 45.3672 709.355 44.3516C709.355 43.3594 709.043 42.5547 708.418 41.9375C707.801 41.3125 706.98 41 705.957 41C705.504 41 704.891 41.0742 704.117 41.2227V47.832ZM717.746 49.3086C717.738 50.9023 718.125 52.1523 718.906 53.0586C719.688 53.9648 720.605 54.418 721.66 54.418C722.363 54.418 722.973 54.2266 723.488 53.8438C724.012 53.4531 724.449 52.7891 724.801 51.8516L725.164 52.0859C725 53.1562 724.523 54.1328 723.734 55.0156C722.945 55.8906 721.957 56.3281 720.77 56.3281C719.48 56.3281 718.375 55.8281 717.453 54.8281C716.539 53.8203 716.082 52.4688 716.082 50.7734C716.082 48.9375 716.551 47.5078 717.488 46.4844C718.434 45.4531 719.617 44.9375 721.039 44.9375C722.242 44.9375 723.23 45.3359 724.004 46.1328C724.777 46.9219 725.164 47.9805 725.164 49.3086H717.746ZM717.746 48.6289H722.715C722.676 47.9414 722.594 47.457 722.469 47.1758C722.273 46.7383 721.98 46.3945 721.59 46.1445C721.207 45.8945 720.805 45.7695 720.383 45.7695C719.734 45.7695 719.152 46.0234 718.637 46.5312C718.129 47.0312 717.832 47.7305 717.746 48.6289ZM732.688 54.4531C731.586 55.3047 730.895 55.7969 730.613 55.9297C730.191 56.125 729.742 56.2227 729.266 56.2227C728.523 56.2227 727.91 55.9688 727.426 55.4609C726.949 54.9531 726.711 54.2852 726.711 53.457C726.711 52.9336 726.828 52.4805 727.062 52.0977C727.383 51.5664 727.938 51.0664 728.727 50.5977C729.523 50.1289 730.844 49.5586 732.688 48.8867V48.4648C732.688 47.3945 732.516 46.6602 732.172 46.2617C731.836 45.8633 731.344 45.6641 730.695 45.6641C730.203 45.6641 729.812 45.7969 729.523 46.0625C729.227 46.3281 729.078 46.6328 729.078 46.9766L729.102 47.6562C729.102 48.0156 729.008 48.293 728.82 48.4883C728.641 48.6836 728.402 48.7812 728.105 48.7812C727.816 48.7812 727.578 48.6797 727.391 48.4766C727.211 48.2734 727.121 47.9961 727.121 47.6445C727.121 46.9727 727.465 46.3555 728.152 45.793C728.84 45.2305 729.805 44.9492 731.047 44.9492C732 44.9492 732.781 45.1094 733.391 45.4297C733.852 45.6719 734.191 46.0508 734.41 46.5664C734.551 46.9023 734.621 47.5898 734.621 48.6289V52.2734C734.621 53.2969 734.641 53.9258 734.68 54.1602C734.719 54.3867 734.781 54.5391 734.867 54.6172C734.961 54.6953 735.066 54.7344 735.184 54.7344C735.309 54.7344 735.418 54.707 735.512 54.6523C735.676 54.5508 735.992 54.2656 736.461 53.7969V54.4531C735.586 55.625 734.75 56.2109 733.953 56.2109C733.57 56.2109 733.266 56.0781 733.039 55.8125C732.812 55.5469 732.695 55.0938 732.688 54.4531ZM732.688 53.6914V49.6016C731.508 50.0703 730.746 50.4023 730.402 50.5977C729.785 50.9414 729.344 51.3008 729.078 51.6758C728.812 52.0508 728.68 52.4609 728.68 52.9062C728.68 53.4688 728.848 53.9375 729.184 54.3125C729.52 54.6797 729.906 54.8633 730.344 54.8633C730.938 54.8633 731.719 54.4727 732.688 53.6914ZM744.852 54.793C744.328 55.3398 743.816 55.7344 743.316 55.9766C742.816 56.2109 742.277 56.3281 741.699 56.3281C740.527 56.3281 739.504 55.8398 738.629 54.8633C737.754 53.8789 737.316 52.6172 737.316 51.0781C737.316 49.5391 737.801 48.1328 738.77 46.8594C739.738 45.5781 740.984 44.9375 742.508 44.9375C743.453 44.9375 744.234 45.2383 744.852 45.8398V43.8594C744.852 42.6328 744.82 41.8789 744.758 41.5977C744.703 41.3164 744.613 41.125 744.488 41.0234C744.363 40.9219 744.207 40.8711 744.02 40.8711C743.816 40.8711 743.547 40.9336 743.211 41.0586L743.059 40.6484L746.258 39.3359H746.785V51.7461C746.785 53.0039 746.812 53.7734 746.867 54.0547C746.93 54.3281 747.023 54.5195 747.148 54.6289C747.281 54.7383 747.434 54.793 747.605 54.793C747.816 54.793 748.098 54.7266 748.449 54.5938L748.578 55.0039L745.391 56.3281H744.852V54.793ZM744.852 53.9727V48.4414C744.805 47.9102 744.664 47.4258 744.43 46.9883C744.195 46.5508 743.883 46.2227 743.492 46.0039C743.109 45.7773 742.734 45.6641 742.367 45.6641C741.68 45.6641 741.066 45.9727 740.527 46.5898C739.816 47.4023 739.461 48.5898 739.461 50.1523C739.461 51.7305 739.805 52.9414 740.492 53.7852C741.18 54.6211 741.945 55.0391 742.789 55.0391C743.5 55.0391 744.188 54.6836 744.852 53.9727ZM748.66 45.2656H753.664V45.6992H753.418C753.066 45.6992 752.801 45.7773 752.621 45.9336C752.449 46.082 752.363 46.2695 752.363 46.4961C752.363 46.8008 752.492 47.2227 752.75 47.7617L755.363 53.1758L757.766 47.2461C757.898 46.9258 757.965 46.6094 757.965 46.2969C757.965 46.1562 757.938 46.0508 757.883 45.9805C757.82 45.8945 757.723 45.8281 757.59 45.7812C757.457 45.7266 757.223 45.6992 756.887 45.6992V45.2656H760.379V45.6992C760.09 45.7305 759.867 45.793 759.711 45.8867C759.555 45.9805 759.383 46.1562 759.195 46.4141C759.125 46.5234 758.992 46.8242 758.797 47.3164L754.426 58.0273C754.004 59.0664 753.449 59.8516 752.762 60.3828C752.082 60.9141 751.426 61.1797 750.793 61.1797C750.332 61.1797 749.953 61.0469 749.656 60.7812C749.359 60.5156 749.211 60.2109 749.211 59.8672C749.211 59.5391 749.316 59.2734 749.527 59.0703C749.746 58.875 750.043 58.7773 750.418 58.7773C750.676 58.7773 751.027 58.8633 751.473 59.0352C751.785 59.1523 751.98 59.2109 752.059 59.2109C752.293 59.2109 752.547 59.0898 752.82 58.8477C753.102 58.6055 753.383 58.1367 753.664 57.4414L754.426 55.5781L750.57 47.4805C750.453 47.2383 750.266 46.9375 750.008 46.5781C749.812 46.3047 749.652 46.1211 749.527 46.0273C749.348 45.9023 749.059 45.793 748.66 45.6992V45.2656Z" fill="black"/>
<path d="M644.917 103.905C645.417 101.189 643.621 98.5822 640.905 98.0825L596.648 89.9392C593.932 89.4395 591.325 91.236 590.826 93.9519C590.326 96.6677 592.122 99.2744 594.838 99.7741L634.178 107.013L626.939 146.352C626.44 149.068 628.236 151.675 630.952 152.174C633.668 152.674 636.274 150.878 636.774 148.162L644.917 103.905ZM196 409L198.837 413.117L200.494 411.975L197.657 407.858L194.819 403.741L193.163 404.883L196 409ZM200.97 405.575L203.808 409.692L207.121 407.408L204.284 403.291L201.446 399.174L198.133 401.458L200.97 405.575ZM207.597 401.007L210.434 405.124L213.748 402.841L210.91 398.724L208.073 394.607L204.76 396.891L207.597 401.007ZM214.224 396.44L217.061 400.557L220.375 398.274L217.537 394.157L214.7 390.04L211.387 392.323L214.224 396.44ZM220.851 391.873L223.688 395.99L227.002 393.707L224.164 389.59L221.327 385.473L218.013 387.756L220.851 391.873ZM227.478 387.306L230.315 391.423L233.628 389.139L230.791 385.022L227.954 380.905L224.64 383.189L227.478 387.306ZM234.104 382.739L236.942 386.856L240.255 384.572L237.418 380.455L234.581 376.338L231.267 378.622L234.104 382.739ZM240.731 378.172L243.569 382.289L246.882 380.005L244.045 375.888L241.207 371.771L237.894 374.055L240.731 378.172ZM247.358 373.604L250.196 377.721L253.509 375.438L250.672 371.321L247.834 367.204L244.521 369.488L247.358 373.604ZM253.985 369.037L256.822 373.154L260.136 370.871L257.298 366.754L254.461 362.637L251.148 364.92L253.985 369.037ZM260.612 364.47L263.449 368.587L266.763 366.304L263.925 362.187L261.088 358.07L257.775 360.353L260.612 364.47ZM267.239 359.903L270.076 364.02L273.39 361.736L270.552 357.619L267.715 353.502L264.401 355.786L267.239 359.903ZM273.866 355.336L276.703 359.453L280.016 357.169L277.179 353.052L274.342 348.935L271.028 351.219L273.866 355.336ZM280.493 350.769L283.33 354.886L286.643 352.602L283.806 348.485L280.969 344.368L277.655 346.652L280.493 350.769ZM287.119 346.202L289.957 350.318L293.27 348.035L290.433 343.918L287.595 339.801L284.282 342.085L287.119 346.202ZM293.746 341.634L296.584 345.751L299.897 343.468L297.06 339.351L294.222 335.234L290.909 337.517L293.746 341.634ZM300.373 337.067L303.21 341.184L306.524 338.901L303.687 334.784L300.849 330.667L297.536 332.95L300.373 337.067ZM307 332.5L309.837 336.617L313.151 334.333L310.313 330.216L307.476 326.099L304.163 328.383L307 332.5ZM313.627 327.933L316.464 332.05L319.778 329.766L316.94 325.649L314.103 321.532L310.789 323.816L313.627 327.933ZM320.254 323.366L323.091 327.483L326.405 325.199L323.567 321.082L320.73 316.965L317.416 319.249L320.254 323.366ZM326.881 318.799L329.718 322.915L333.031 320.632L330.194 316.515L327.357 312.398L324.043 314.682L326.881 318.799ZM333.507 314.231L336.345 318.348L339.658 316.065L336.821 311.948L333.984 307.831L330.67 310.114L333.507 314.231ZM340.134 309.664L342.972 313.781L346.285 311.498L343.448 307.381L340.61 303.264L337.297 305.547L340.134 309.664ZM346.761 305.097L349.599 309.214L352.912 306.93L350.075 302.813L347.237 298.696L343.924 300.98L346.761 305.097ZM353.388 300.53L356.225 304.647L359.539 302.363L356.701 298.246L353.864 294.129L350.551 296.413L353.388 300.53ZM360.015 295.963L362.852 300.08L366.166 297.796L363.328 293.679L360.491 289.562L357.178 291.846L360.015 295.963ZM366.642 291.396L369.479 295.513L372.793 293.229L369.955 289.112L367.118 284.995L363.804 287.279L366.642 291.396ZM373.269 286.828L376.106 290.945L379.419 288.662L376.582 284.545L373.745 280.428L370.431 282.711L373.269 286.828ZM379.895 282.261L382.733 286.378L386.046 284.095L383.209 279.978L380.372 275.861L377.058 278.144L379.895 282.261ZM386.522 277.694L389.36 281.811L392.673 279.527L389.836 275.41L386.998 271.294L383.685 273.577L386.522 277.694ZM393.149 273.127L395.987 277.244L399.3 274.96L396.463 270.843L393.625 266.726L390.312 269.01L393.149 273.127ZM399.776 268.56L402.613 272.677L405.927 270.393L403.09 266.276L400.252 262.159L396.939 264.443L399.776 268.56ZM406.403 263.993L409.24 268.11L412.554 265.826L409.716 261.709L406.879 257.592L403.566 259.876L406.403 263.993ZM413.03 259.425L415.867 263.542L419.181 261.259L416.343 257.142L413.506 253.025L410.192 255.308L413.03 259.425ZM419.657 254.858L422.494 258.975L425.808 256.692L422.97 252.575L420.133 248.458L416.819 250.741L419.657 254.858ZM426.284 250.291L429.121 254.408L432.434 252.124L429.597 248.007L426.76 243.89L423.446 246.174L426.284 250.291ZM432.91 245.724L435.748 249.841L439.061 247.557L436.224 243.44L433.387 239.323L430.073 241.607L432.91 245.724ZM439.537 241.157L442.375 245.274L445.688 242.99L442.851 238.873L440.013 234.756L436.7 237.04L439.537 241.157ZM446.164 236.589L449.002 240.706L452.315 238.423L449.478 234.306L446.64 230.189L443.327 232.473L446.164 236.589ZM452.791 232.022L455.629 236.139L458.942 233.856L456.105 229.739L453.267 225.622L449.954 227.905L452.791 232.022ZM459.418 227.455L462.255 231.572L465.569 229.288L462.731 225.172L459.894 221.055L456.581 223.338L459.418 227.455ZM466.045 222.888L468.882 227.005L472.196 224.721L469.358 220.604L466.521 216.487L463.208 218.771L466.045 222.888ZM472.672 218.321L475.509 222.438L478.823 220.154L475.985 216.037L473.148 211.92L469.834 214.204L472.672 218.321ZM479.299 213.754L482.136 217.871L485.45 215.587L482.612 211.47L479.775 207.353L476.461 209.637L479.299 213.754ZM485.926 209.186L488.763 213.303L492.076 211.02L489.239 206.903L486.402 202.786L483.088 205.069L485.926 209.186ZM492.552 204.619L495.39 208.736L498.703 206.453L495.866 202.336L493.029 198.219L489.715 200.502L492.552 204.619ZM499.179 200.052L502.017 204.169L505.33 201.885L502.493 197.768L499.655 193.651L496.342 195.935L499.179 200.052ZM505.806 195.485L508.644 199.602L511.957 197.318L509.12 193.201L506.282 189.084L502.969 191.368L505.806 195.485ZM512.433 190.918L515.271 195.035L518.584 192.751L515.747 188.634L512.909 184.517L509.596 186.801L512.433 190.918ZM519.06 186.351L521.897 190.467L525.211 188.184L522.373 184.067L519.536 179.95L516.223 182.234L519.06 186.351ZM525.687 181.783L528.524 185.9L531.838 183.617L529 179.5L526.163 175.383L522.85 177.666L525.687 181.783ZM532.314 177.216L535.151 181.333L538.465 179.05L535.627 174.933L532.79 170.816L529.476 173.099L532.314 177.216ZM538.941 172.649L541.778 176.766L545.092 174.482L542.254 170.365L539.417 166.248L536.103 168.532L538.941 172.649ZM545.568 168.082L548.405 172.199L551.718 169.915L548.881 165.798L546.044 161.681L542.73 163.965L545.568 168.082ZM552.194 163.515L555.032 167.632L558.345 165.348L555.508 161.231L552.671 157.114L549.357 159.398L552.194 163.515ZM558.821 158.947L561.659 163.064L564.972 160.781L562.135 156.664L559.297 152.547L555.984 154.83L558.821 158.947ZM565.448 154.38L568.286 158.497L571.599 156.214L568.762 152.097L565.924 147.98L562.611 150.263L565.448 154.38ZM572.075 149.813L574.913 153.93L578.226 151.646L575.389 147.529L572.551 143.413L569.238 145.696L572.075 149.813ZM578.702 145.246L581.539 149.363L584.853 147.079L582.016 142.962L579.178 138.845L575.865 141.129L578.702 145.246ZM585.329 140.679L588.166 144.796L591.48 142.512L588.642 138.395L585.805 134.278L582.492 136.562L585.329 140.679ZM591.956 136.112L594.793 140.228L598.107 137.945L595.269 133.828L592.432 129.711L589.118 131.995L591.956 136.112ZM598.583 131.544L601.42 135.661L604.734 133.378L601.896 129.261L599.059 125.144L595.745 127.427L598.583 131.544ZM605.21 126.977L608.047 131.094L611.36 128.811L608.523 124.694L605.686 120.577L602.372 122.86L605.21 126.977ZM611.837 122.41L614.674 126.527L617.987 124.243L615.15 120.126L612.313 116.009L608.999 118.293L611.837 122.41ZM618.463 117.843L621.301 121.96L624.614 119.676L621.777 115.559L618.939 111.442L615.626 113.726L618.463 117.843ZM625.09 113.276L627.928 117.393L631.241 115.109L628.404 110.992L625.566 106.875L622.253 109.159L625.09 113.276ZM631.717 108.709L634.554 112.825L637.868 110.542L635.03 106.425L632.193 102.308L628.88 104.592L631.717 108.709ZM638.344 104.141L641.181 108.258L642.837 107.117L640 103L637.163 98.883L635.507 100.024L638.344 104.141ZM644.917 103.905C645.417 101.189 643.621 98.5822 640.905 98.0825L596.648 89.9392C593.932 89.4395 591.325 91.236 590.826 93.9519C590.326 96.6677 592.122 99.2744 594.838 99.7741L634.178 107.013L626.939 146.352C626.44 149.068 628.236 151.675 630.952 152.174C633.668 152.674 636.274 150.878 636.774 148.162L644.917 103.905ZM196 409L198.837 413.117L200.494 411.975L197.657 407.858L194.819 403.741L193.163 404.883L196 409ZM200.97 405.575L203.808 409.692L207.121 407.408L204.284 403.291L201.446 399.174L198.133 401.458L200.97 405.575ZM207.597 401.007L210.434 405.124L213.748 402.841L210.91 398.724L208.073 394.607L204.76 396.891L207.597 401.007ZM214.224 396.44L217.061 400.557L220.375 398.274L217.537 394.157L214.7 390.04L211.387 392.323L214.224 396.44ZM220.851 391.873L223.688 395.99L227.002 393.707L224.164 389.59L221.327 385.473L218.013 387.756L220.851 391.873ZM227.478 387.306L230.315 391.423L233.628 389.139L230.791 385.022L227.954 380.905L224.64 383.189L227.478 387.306ZM234.104 382.739L236.942 386.856L240.255 384.572L237.418 380.455L234.581 376.338L231.267 378.622L234.104 382.739ZM240.731 378.172L243.569 382.289L246.882 380.005L244.045 375.888L241.207 371.771L237.894 374.055L240.731 378.172ZM247.358 373.604L250.196 377.721L253.509 375.438L250.672 371.321L247.834 367.204L244.521 369.488L247.358 373.604ZM253.985 369.037L256.822 373.154L260.136 370.871L257.298 366.754L254.461 362.637L251.148 364.92L253.985 369.037ZM260.612 364.47L263.449 368.587L266.763 366.304L263.925 362.187L261.088 358.07L257.775 360.353L260.612 364.47ZM267.239 359.903L270.076 364.02L273.39 361.736L270.552 357.619L267.715 353.502L264.401 355.786L267.239 359.903ZM273.866 355.336L276.703 359.453L280.016 357.169L277.179 353.052L274.342 348.935L271.028 351.219L273.866 355.336ZM280.493 350.769L283.33 354.886L286.643 352.602L283.806 348.485L280.969 344.368L277.655 346.652L280.493 350.769ZM287.119 346.202L289.957 350.318L293.27 348.035L290.433 343.918L287.595 339.801L284.282 342.085L287.119 346.202ZM293.746 341.634L296.584 345.751L299.897 343.468L297.06 339.351L294.222 335.234L290.909 337.517L293.746 341.634ZM300.373 337.067L303.21 341.184L306.524 338.901L303.687 334.784L300.849 330.667L297.536 332.95L300.373 337.067ZM307 332.5L309.837 336.617L313.151 334.333L310.313 330.216L307.476 326.099L304.163 328.383L307 332.5ZM313.627 327.933L316.464 332.05L319.778 329.766L316.94 325.649L314.103 321.532L310.789 323.816L313.627 327.933ZM320.254 323.366L323.091 327.483L326.405 325.199L323.567 321.082L320.73 316.965L317.416 319.249L320.254 323.366ZM326.881 318.799L329.718 322.915L333.031 320.632L330.194 316.515L327.357 312.398L324.043 314.682L326.881 318.799ZM333.507 314.231L336.345 318.348L339.658 316.065L336.821 311.948L333.984 307.831L330.67 310.114L333.507 314.231ZM340.134 309.664L342.972 313.781L346.285 311.498L343.448 307.381L340.61 303.264L337.297 305.547L340.134 309.664ZM346.761 305.097L349.599 309.214L352.912 306.93L350.075 302.813L347.237 298.696L343.924 300.98L346.761 305.097ZM353.388 300.53L356.225 304.647L359.539 302.363L356.701 298.246L353.864 294.129L350.551 296.413L353.388 300.53ZM360.015 295.963L362.852 300.08L366.166 297.796L363.328 293.679L360.491 289.562L357.178 291.846L360.015 295.963ZM366.642 291.396L369.479 295.513L372.793 293.229L369.955 289.112L367.118 284.995L363.804 287.279L366.642 291.396ZM373.269 286.828L376.106 290.945L379.419 288.662L376.582 284.545L373.745 280.428L370.431 282.711L373.269 286.828ZM379.895 282.261L382.733 286.378L386.046 284.095L383.209 279.978L380.372 275.861L377.058 278.144L379.895 282.261ZM386.522 277.694L389.36 281.811L392.673 279.527L389.836 275.41L386.998 271.294L383.685 273.577L386.522 277.694ZM393.149 273.127L395.987 277.244L399.3 274.96L396.463 270.843L393.625 266.726L390.312 269.01L393.149 273.127ZM399.776 268.56L402.613 272.677L405.927 270.393L403.09 266.276L400.252 262.159L396.939 264.443L399.776 268.56ZM406.403 263.993L409.24 268.11L412.554 265.826L409.716 261.709L406.879 257.592L403.566 259.876L406.403 263.993ZM413.03 259.425L415.867 263.542L419.181 261.259L416.343 257.142L413.506 253.025L410.192 255.308L413.03 259.425ZM419.657 254.858L422.494 258.975L425.808 256.692L422.97 252.575L420.133 248.458L416.819 250.741L419.657 254.858ZM426.284 250.291L429.121 254.408L432.434 252.124L429.597 248.007L426.76 243.89L423.446 246.174L426.284 250.291ZM432.91 245.724L435.748 249.841L439.061 247.557L436.224 243.44L433.387 239.323L430.073 241.607L432.91 245.724ZM439.537 241.157L442.375 245.274L445.688 242.99L442.851 238.873L440.013 234.756L436.7 237.04L439.537 241.157ZM446.164 236.589L449.002 240.706L452.315 238.423L449.478 234.306L446.64 230.189L443.327 232.473L446.164 236.589ZM452.791 232.022L455.629 236.139L458.942 233.856L456.105 229.739L453.267 225.622L449.954 227.905L452.791 232.022ZM459.418 227.455L462.255 231.572L465.569 229.288L462.731 225.172L459.894 221.055L456.581 223.338L459.418 227.455ZM466.045 222.888L468.882 227.005L472.196 224.721L469.358 220.604L466.521 216.487L463.208 218.771L466.045 222.888ZM472.672 218.321L475.509 222.438L478.823 220.154L475.985 216.037L473.148 211.92L469.834 214.204L472.672 218.321ZM479.299 213.754L482.136 217.871L485.45 215.587L482.612 211.47L479.775 207.353L476.461 209.637L479.299 213.754ZM485.926 209.186L488.763 213.303L492.076 211.02L489.239 206.903L486.402 202.786L483.088 205.069L485.926 209.186ZM492.552 204.619L495.39 208.736L498.703 206.453L495.866 202.336L493.029 198.219L489.715 200.502L492.552 204.619ZM499.179 200.052L502.017 204.169L505.33 201.885L502.493 197.768L499.655 193.651L496.342 195.935L499.179 200.052ZM505.806 195.485L508.644 199.602L511.957 197.318L509.12 193.201L506.282 189.084L502.969 191.368L505.806 195.485ZM512.433 190.918L515.271 195.035L518.584 192.751L515.747 188.634L512.909 184.517L509.596 186.801L512.433 190.918ZM519.06 186.351L521.897 190.467L525.211 188.184L522.373 184.067L519.536 179.95L516.223 182.234L519.06 186.351ZM525.687 181.783L528.524 185.9L531.838 183.617L529 179.5L526.163 175.383L522.85 177.666L525.687 181.783ZM532.314 177.216L535.151 181.333L538.465 179.05L535.627 174.933L532.79 170.816L529.476 173.099L532.314 177.216ZM538.941 172.649L541.778 176.766L545.092 174.482L542.254 170.365L539.417 166.248L536.103 168.532L538.941 172.649ZM545.568 168.082L548.405 172.199L551.718 169.915L548.881 165.798L546.044 161.681L542.73 163.965L545.568 168.082ZM552.194 163.515L555.032 167.632L558.345 165.348L555.508 161.231L552.671 157.114L549.357 159.398L552.194 163.515ZM558.821 158.947L561.659 163.064L564.972 160.781L562.135 156.664L559.297 152.547L555.984 154.83L558.821 158.947ZM565.448 154.38L568.286 158.497L571.599 156.214L568.762 152.097L565.924 147.98L562.611 150.263L565.448 154.38ZM572.075 149.813L574.913 153.93L578.226 151.646L575.389 147.529L572.551 143.413L569.238 145.696L572.075 149.813ZM578.702 145.246L581.539 149.363L584.853 147.079L582.016 142.962L579.178 138.845L575.865 141.129L578.702 145.246ZM585.329 140.679L588.166 144.796L591.48 142.512L588.642 138.395L585.805 134.278L582.492 136.562L585.329 140.679ZM591.956 136.112L594.793 140.228L598.107 137.945L595.269 133.828L592.432 129.711L589.118 131.995L591.956 136.112ZM598.583 131.544L601.42 135.661L604.734 133.378L601.896 129.261L599.059 125.144L595.745 127.427L598.583 131.544ZM605.21 126.977L608.047 131.094L611.36 128.811L608.523 124.694L605.686 120.577L602.372 122.86L605.21 126.977ZM611.837 122.41L614.674 126.527L617.987 124.243L615.15 120.126L612.313 116.009L608.999 118.293L611.837 122.41ZM618.463 117.843L621.301 121.96L624.614 119.676L621.777 115.559L618.939 111.442L615.626 113.726L618.463 117.843ZM625.09 113.276L627.928 117.393L631.241 115.109L628.404 110.992L625.566 106.875L622.253 109.159L625.09 113.276ZM631.717 108.709L634.554 112.825L637.868 110.542L635.03 106.425L632.193 102.308L628.88 104.592L631.717 108.709ZM638.344 104.141L641.181 108.258L642.837 107.117L640 103L637.163 98.883L635.507 100.024L638.344 104.141Z" fill="url(#paint0_linear_601_3660)"/>
<path d="M644.917 103.905C645.417 101.189 643.621 98.5822 640.905 98.0825L596.648 89.9392C593.932 89.4395 591.325 91.236 590.826 93.9519C590.326 96.6677 592.122 99.2744 594.838 99.7741L634.178 107.013L626.939 146.352C626.44 149.068 628.236 151.675 630.952 152.174C633.668 152.674 636.274 150.878 636.774 148.162L644.917 103.905ZM196 409L198.837 413.117L200.494 411.975L197.657 407.858L194.819 403.741L193.163 404.883L196 409ZM200.97 405.575L203.808 409.692L207.121 407.408L204.284 403.291L201.446 399.174L198.133 401.458L200.97 405.575ZM207.597 401.007L210.434 405.124L213.748 402.841L210.91 398.724L208.073 394.607L204.76 396.891L207.597 401.007ZM214.224 396.44L217.061 400.557L220.375 398.274L217.537 394.157L214.7 390.04L211.387 392.323L214.224 396.44ZM220.851 391.873L223.688 395.99L227.002 393.707L224.164 389.59L221.327 385.473L218.013 387.756L220.851 391.873ZM227.478 387.306L230.315 391.423L233.628 389.139L230.791 385.022L227.954 380.905L224.64 383.189L227.478 387.306ZM234.104 382.739L236.942 386.856L240.255 384.572L237.418 380.455L234.581 376.338L231.267 378.622L234.104 382.739ZM240.731 378.172L243.569 382.289L246.882 380.005L244.045 375.888L241.207 371.771L237.894 374.055L240.731 378.172ZM247.358 373.604L250.196 377.721L253.509 375.438L250.672 371.321L247.834 367.204L244.521 369.488L247.358 373.604ZM253.985 369.037L256.822 373.154L260.136 370.871L257.298 366.754L254.461 362.637L251.148 364.92L253.985 369.037ZM260.612 364.47L263.449 368.587L266.763 366.304L263.925 362.187L261.088 358.07L257.775 360.353L260.612 364.47ZM267.239 359.903L270.076 364.02L273.39 361.736L270.552 357.619L267.715 353.502L264.401 355.786L267.239 359.903ZM273.866 355.336L276.703 359.453L280.016 357.169L277.179 353.052L274.342 348.935L271.028 351.219L273.866 355.336ZM280.493 350.769L283.33 354.886L286.643 352.602L283.806 348.485L280.969 344.368L277.655 346.652L280.493 350.769ZM287.119 346.202L289.957 350.318L293.27 348.035L290.433 343.918L287.595 339.801L284.282 342.085L287.119 346.202ZM293.746 341.634L296.584 345.751L299.897 343.468L297.06 339.351L294.222 335.234L290.909 337.517L293.746 341.634ZM300.373 337.067L303.21 341.184L306.524 338.901L303.687 334.784L300.849 330.667L297.536 332.95L300.373 337.067ZM307 332.5L309.837 336.617L313.151 334.333L310.313 330.216L307.476 326.099L304.163 328.383L307 332.5ZM313.627 327.933L316.464 332.05L319.778 329.766L316.94 325.649L314.103 321.532L310.789 323.816L313.627 327.933ZM320.254 323.366L323.091 327.483L326.405 325.199L323.567 321.082L320.73 316.965L317.416 319.249L320.254 323.366ZM326.881 318.799L329.718 322.915L333.031 320.632L330.194 316.515L327.357 312.398L324.043 314.682L326.881 318.799ZM333.507 314.231L336.345 318.348L339.658 316.065L336.821 311.948L333.984 307.831L330.67 310.114L333.507 314.231ZM340.134 309.664L342.972 313.781L346.285 311.498L343.448 307.381L340.61 303.264L337.297 305.547L340.134 309.664ZM346.761 305.097L349.599 309.214L352.912 306.93L350.075 302.813L347.237 298.696L343.924 300.98L346.761 305.097ZM353.388 300.53L356.225 304.647L359.539 302.363L356.701 298.246L353.864 294.129L350.551 296.413L353.388 300.53ZM360.015 295.963L362.852 300.08L366.166 297.796L363.328 293.679L360.491 289.562L357.178 291.846L360.015 295.963ZM366.642 291.396L369.479 295.513L372.793 293.229L369.955 289.112L367.118 284.995L363.804 287.279L366.642 291.396ZM373.269 286.828L376.106 290.945L379.419 288.662L376.582 284.545L373.745 280.428L370.431 282.711L373.269 286.828ZM379.895 282.261L382.733 286.378L386.046 284.095L383.209 279.978L380.372 275.861L377.058 278.144L379.895 282.261ZM386.522 277.694L389.36 281.811L392.673 279.527L389.836 275.41L386.998 271.294L383.685 273.577L386.522 277.694ZM393.149 273.127L395.987 277.244L399.3 274.96L396.463 270.843L393.625 266.726L390.312 269.01L393.149 273.127ZM399.776 268.56L402.613 272.677L405.927 270.393L403.09 266.276L400.252 262.159L396.939 264.443L399.776 268.56ZM406.403 263.993L409.24 268.11L412.554 265.826L409.716 261.709L406.879 257.592L403.566 259.876L406.403 263.993ZM413.03 259.425L415.867 263.542L419.181 261.259L416.343 257.142L413.506 253.025L410.192 255.308L413.03 259.425ZM419.657 254.858L422.494 258.975L425.808 256.692L422.97 252.575L420.133 248.458L416.819 250.741L419.657 254.858ZM426.284 250.291L429.121 254.408L432.434 252.124L429.597 248.007L426.76 243.89L423.446 246.174L426.284 250.291ZM432.91 245.724L435.748 249.841L439.061 247.557L436.224 243.44L433.387 239.323L430.073 241.607L432.91 245.724ZM439.537 241.157L442.375 245.274L445.688 242.99L442.851 238.873L440.013 234.756L436.7 237.04L439.537 241.157ZM446.164 236.589L449.002 240.706L452.315 238.423L449.478 234.306L446.64 230.189L443.327 232.473L446.164 236.589ZM452.791 232.022L455.629 236.139L458.942 233.856L456.105 229.739L453.267 225.622L449.954 227.905L452.791 232.022ZM459.418 227.455L462.255 231.572L465.569 229.288L462.731 225.172L459.894 221.055L456.581 223.338L459.418 227.455ZM466.045 222.888L468.882 227.005L472.196 224.721L469.358 220.604L466.521 216.487L463.208 218.771L466.045 222.888ZM472.672 218.321L475.509 222.438L478.823 220.154L475.985 216.037L473.148 211.92L469.834 214.204L472.672 218.321ZM479.299 213.754L482.136 217.871L485.45 215.587L482.612 211.47L479.775 207.353L476.461 209.637L479.299 213.754ZM485.926 209.186L488.763 213.303L492.076 211.02L489.239 206.903L486.402 202.786L483.088 205.069L485.926 209.186ZM492.552 204.619L495.39 208.736L498.703 206.453L495.866 202.336L493.029 198.219L489.715 200.502L492.552 204.619ZM499.179 200.052L502.017 204.169L505.33 201.885L502.493 197.768L499.655 193.651L496.342 195.935L499.179 200.052ZM505.806 195.485L508.644 199.602L511.957 197.318L509.12 193.201L506.282 189.084L502.969 191.368L505.806 195.485ZM512.433 190.918L515.271 195.035L518.584 192.751L515.747 188.634L512.909 184.517L509.596 186.801L512.433 190.918ZM519.06 186.351L521.897 190.467L525.211 188.184L522.373 184.067L519.536 179.95L516.223 182.234L519.06 186.351ZM525.687 181.783L528.524 185.9L531.838 183.617L529 179.5L526.163 175.383L522.85 177.666L525.687 181.783ZM532.314 177.216L535.151 181.333L538.465 179.05L535.627 174.933L532.79 170.816L529.476 173.099L532.314 177.216ZM538.941 172.649L541.778 176.766L545.092 174.482L542.254 170.365L539.417 166.248L536.103 168.532L538.941 172.649ZM545.568 168.082L548.405 172.199L551.718 169.915L548.881 165.798L546.044 161.681L542.73 163.965L545.568 168.082ZM552.194 163.515L555.032 167.632L558.345 165.348L555.508 161.231L552.671 157.114L549.357 159.398L552.194 163.515ZM558.821 158.947L561.659 163.064L564.972 160.781L562.135 156.664L559.297 152.547L555.984 154.83L558.821 158.947ZM565.448 154.38L568.286 158.497L571.599 156.214L568.762 152.097L565.924 147.98L562.611 150.263L565.448 154.38ZM572.075 149.813L574.913 153.93L578.226 151.646L575.389 147.529L572.551 143.413L569.238 145.696L572.075 149.813ZM578.702 145.246L581.539 149.363L584.853 147.079L582.016 142.962L579.178 138.845L575.865 141.129L578.702 145.246ZM585.329 140.679L588.166 144.796L591.48 142.512L588.642 138.395L585.805 134.278L582.492 136.562L585.329 140.679ZM591.956 136.112L594.793 140.228L598.107 137.945L595.269 133.828L592.432 129.711L589.118 131.995L591.956 136.112ZM598.583 131.544L601.42 135.661L604.734 133.378L601.896 129.261L599.059 125.144L595.745 127.427L598.583 131.544ZM605.21 126.977L608.047 131.094L611.36 128.811L608.523 124.694L605.686 120.577L602.372 122.86L605.21 126.977ZM611.837 122.41L614.674 126.527L617.987 124.243L615.15 120.126L612.313 116.009L608.999 118.293L611.837 122.41ZM618.463 117.843L621.301 121.96L624.614 119.676L621.777 115.559L618.939 111.442L615.626 113.726L618.463 117.843ZM625.09 113.276L627.928 117.393L631.241 115.109L628.404 110.992L625.566 106.875L622.253 109.159L625.09 113.276ZM631.717 108.709L634.554 112.825L637.868 110.542L635.03 106.425L632.193 102.308L628.88 104.592L631.717 108.709ZM638.344 104.141L641.181 108.258L642.837 107.117L640 103L637.163 98.883L635.507 100.024L638.344 104.141ZM644.917 103.905C645.417 101.189 643.621 98.5822 640.905 98.0825L596.648 89.9392C593.932 89.4395 591.325 91.236 590.826 93.9519C590.326 96.6677 592.122 99.2744 594.838 99.7741L634.178 107.013L626.939 146.352C626.44 149.068 628.236 151.675 630.952 152.174C633.668 152.674 636.274 150.878 636.774 148.162L644.917 103.905ZM196 409L198.837 413.117L200.494 411.975L197.657 407.858L194.819 403.741L193.163 404.883L196 409ZM200.97 405.575L203.808 409.692L207.121 407.408L204.284 403.291L201.446 399.174L198.133 401.458L200.97 405.575ZM207.597 401.007L210.434 405.124L213.748 402.841L210.91 398.724L208.073 394.607L204.76 396.891L207.597 401.007ZM214.224 396.44L217.061 400.557L220.375 398.274L217.537 394.157L214.7 390.04L211.387 392.323L214.224 396.44ZM220.851 391.873L223.688 395.99L227.002 393.707L224.164 389.59L221.327 385.473L218.013 387.756L220.851 391.873ZM227.478 387.306L230.315 391.423L233.628 389.139L230.791 385.022L227.954 380.905L224.64 383.189L227.478 387.306ZM234.104 382.739L236.942 386.856L240.255 384.572L237.418 380.455L234.581 376.338L231.267 378.622L234.104 382.739ZM240.731 378.172L243.569 382.289L246.882 380.005L244.045 375.888L241.207 371.771L237.894 374.055L240.731 378.172ZM247.358 373.604L250.196 377.721L253.509 375.438L250.672 371.321L247.834 367.204L244.521 369.488L247.358 373.604ZM253.985 369.037L256.822 373.154L260.136 370.871L257.298 366.754L254.461 362.637L251.148 364.92L253.985 369.037ZM260.612 364.47L263.449 368.587L266.763 366.304L263.925 362.187L261.088 358.07L257.775 360.353L260.612 364.47ZM267.239 359.903L270.076 364.02L273.39 361.736L270.552 357.619L267.715 353.502L264.401 355.786L267.239 359.903ZM273.866 355.336L276.703 359.453L280.016 357.169L277.179 353.052L274.342 348.935L271.028 351.219L273.866 355.336ZM280.493 350.769L283.33 354.886L286.643 352.602L283.806 348.485L280.969 344.368L277.655 346.652L280.493 350.769ZM287.119 346.202L289.957 350.318L293.27 348.035L290.433 343.918L287.595 339.801L284.282 342.085L287.119 346.202ZM293.746 341.634L296.584 345.751L299.897 343.468L297.06 339.351L294.222 335.234L290.909 337.517L293.746 341.634ZM300.373 337.067L303.21 341.184L306.524 338.901L303.687 334.784L300.849 330.667L297.536 332.95L300.373 337.067ZM307 332.5L309.837 336.617L313.151 334.333L310.313 330.216L307.476 326.099L304.163 328.383L307 332.5ZM313.627 327.933L316.464 332.05L319.778 329.766L316.94 325.649L314.103 321.532L310.789 323.816L313.627 327.933ZM320.254 323.366L323.091 327.483L326.405 325.199L323.567 321.082L320.73 316.965L317.416 319.249L320.254 323.366ZM326.881 318.799L329.718 322.915L333.031 320.632L330.194 316.515L327.357 312.398L324.043 314.682L326.881 318.799ZM333.507 314.231L336.345 318.348L339.658 316.065L336.821 311.948L333.984 307.831L330.67 310.114L333.507 314.231ZM340.134 309.664L342.972 313.781L346.285 311.498L343.448 307.381L340.61 303.264L337.297 305.547L340.134 309.664ZM346.761 305.097L349.599 309.214L352.912 306.93L350.075 302.813L347.237 298.696L343.924 300.98L346.761 305.097ZM353.388 300.53L356.225 304.647L359.539 302.363L356.701 298.246L353.864 294.129L350.551 296.413L353.388 300.53ZM360.015 295.963L362.852 300.08L366.166 297.796L363.328 293.679L360.491 289.562L357.178 291.846L360.015 295.963ZM366.642 291.396L369.479 295.513L372.793 293.229L369.955 289.112L367.118 284.995L363.804 287.279L366.642 291.396ZM373.269 286.828L376.106 290.945L379.419 288.662L376.582 284.545L373.745 280.428L370.431 282.711L373.269 286.828ZM379.895 282.261L382.733 286.378L386.046 284.095L383.209 279.978L380.372 275.861L377.058 278.144L379.895 282.261ZM386.522 277.694L389.36 281.811L392.673 279.527L389.836 275.41L386.998 271.294L383.685 273.577L386.522 277.694ZM393.149 273.127L395.987 277.244L399.3 274.96L396.463 270.843L393.625 266.726L390.312 269.01L393.149 273.127ZM399.776 268.56L402.613 272.677L405.927 270.393L403.09 266.276L400.252 262.159L396.939 264.443L399.776 268.56ZM406.403 263.993L409.24 268.11L412.554 265.826L409.716 261.709L406.879 257.592L403.566 259.876L406.403 263.993ZM413.03 259.425L415.867 263.542L419.181 261.259L416.343 257.142L413.506 253.025L410.192 255.308L413.03 259.425ZM419.657 254.858L422.494 258.975L425.808 256.692L422.97 252.575L420.133 248.458L416.819 250.741L419.657 254.858ZM426.284 250.291L429.121 254.408L432.434 252.124L429.597 248.007L426.76 243.89L423.446 246.174L426.284 250.291ZM432.91 245.724L435.748 249.841L439.061 247.557L436.224 243.44L433.387 239.323L430.073 241.607L432.91 245.724ZM439.537 241.157L442.375 245.274L445.688 242.99L442.851 238.873L440.013 234.756L436.7 237.04L439.537 241.157ZM446.164 236.589L449.002 240.706L452.315 238.423L449.478 234.306L446.64 230.189L443.327 232.473L446.164 236.589ZM452.791 232.022L455.629 236.139L458.942 233.856L456.105 229.739L453.267 225.622L449.954 227.905L452.791 232.022ZM459.418 227.455L462.255 231.572L465.569 229.288L462.731 225.172L459.894 221.055L456.581 223.338L459.418 227.455ZM466.045 222.888L468.882 227.005L472.196 224.721L469.358 220.604L466.521 216.487L463.208 218.771L466.045 222.888ZM472.672 218.321L475.509 222.438L478.823 220.154L475.985 216.037L473.148 211.92L469.834 214.204L472.672 218.321ZM479.299 213.754L482.136 217.871L485.45 215.587L482.612 211.47L479.775 207.353L476.461 209.637L479.299 213.754ZM485.926 209.186L488.763 213.303L492.076 211.02L489.239 206.903L486.402 202.786L483.088 205.069L485.926 209.186ZM492.552 204.619L495.39 208.736L498.703 206.453L495.866 202.336L493.029 198.219L489.715 200.502L492.552 204.619ZM499.179 200.052L502.017 204.169L505.33 201.885L502.493 197.768L499.655 193.651L496.342 195.935L499.179 200.052ZM505.806 195.485L508.644 199.602L511.957 197.318L509.12 193.201L506.282 189.084L502.969 191.368L505.806 195.485ZM512.433 190.918L515.271 195.035L518.584 192.751L515.747 188.634L512.909 184.517L509.596 186.801L512.433 190.918ZM519.06 186.351L521.897 190.467L525.211 188.184L522.373 184.067L519.536 179.95L516.223 182.234L519.06 186.351ZM525.687 181.783L528.524 185.9L531.838 183.617L529 179.5L526.163 175.383L522.85 177.666L525.687 181.783ZM532.314 177.216L535.151 181.333L538.465 179.05L535.627 174.933L532.79 170.816L529.476 173.099L532.314 177.216ZM538.941 172.649L541.778 176.766L545.092 174.482L542.254 170.365L539.417 166.248L536.103 168.532L538.941 172.649ZM545.568 168.082L548.405 172.199L551.718 169.915L548.881 165.798L546.044 161.681L542.73 163.965L545.568 168.082ZM552.194 163.515L555.032 167.632L558.345 165.348L555.508 161.231L552.671 157.114L549.357 159.398L552.194 163.515ZM558.821 158.947L561.659 163.064L564.972 160.781L562.135 156.664L559.297 152.547L555.984 154.83L558.821 158.947ZM565.448 154.38L568.286 158.497L571.599 156.214L568.762 152.097L565.924 147.98L562.611 150.263L565.448 154.38ZM572.075 149.813L574.913 153.93L578.226 151.646L575.389 147.529L572.551 143.413L569.238 145.696L572.075 149.813ZM578.702 145.246L581.539 149.363L584.853 147.079L582.016 142.962L579.178 138.845L575.865 141.129L578.702 145.246ZM585.329 140.679L588.166 144.796L591.48 142.512L588.642 138.395L585.805 134.278L582.492 136.562L585.329 140.679ZM591.956 136.112L594.793 140.228L598.107 137.945L595.269 133.828L592.432 129.711L589.118 131.995L591.956 136.112ZM598.583 131.544L601.42 135.661L604.734 133.378L601.896 129.261L599.059 125.144L595.745 127.427L598.583 131.544ZM605.21 126.977L608.047 131.094L611.36 128.811L608.523 124.694L605.686 120.577L602.372 122.86L605.21 126.977ZM611.837 122.41L614.674 126.527L617.987 124.243L615.15 120.126L612.313 116.009L608.999 118.293L611.837 122.41ZM618.463 117.843L621.301 121.96L624.614 119.676L621.777 115.559L618.939 111.442L615.626 113.726L618.463 117.843ZM625.09 113.276L627.928 117.393L631.241 115.109L628.404 110.992L625.566 106.875L622.253 109.159L625.09 113.276ZM631.717 108.709L634.554 112.825L637.868 110.542L635.03 106.425L632.193 102.308L628.88 104.592L631.717 108.709ZM638.344 104.141L641.181 108.258L642.837 107.117L640 103L637.163 98.883L635.507 100.024L638.344 104.141Z" fill="url(#paint1_linear_601_3660)"/>
<defs>
<linearGradient id="paint0_linear_601_3660" x1="196.284" y1="409.412" x2="640.284" y2="103.412" gradientUnits="userSpaceOnUse">
<stop stop-color="#FFD23C"/>
<stop offset="1" stop-color="#007295"/>
</linearGradient>
<linearGradient id="paint1_linear_601_3660" x1="196.284" y1="409.412" x2="640.284" y2="103.412" gradientUnits="userSpaceOnUse">
<stop stop-color="#FFD23C"/>
<stop offset="1" stop-color="#007295"/>
</linearGradient>
</defs>
</svg>
